<svg width="24" height="24" viewBox="0 0 24 24" fill="none" xmlns="http://www.w3.org/2000/svg">
<path d="M19.7979 21.0641L19.8179 21.0321L21.8179 16.9731L15.9769 12.5921L13.2889 14.6081C12.2776 14.5472 11.3235 14.1187 10.6062 13.4034C9.88881 12.6881 9.45766 11.7352 9.39387 10.7241L9.39287 10.7121L11.4089 8.02411L7.02787 2.18311L2.96887 4.18311L2.93687 4.20311C2.60087 4.41411 2.38087 4.78211 2.38087 5.20211V6.25311C2.38087 14.7401 9.26087 21.6201 17.7479 21.6201H18.7949H18.7989C19.2189 21.6201 19.5869 21.4001 19.7949 21.0691L19.7979 21.0641ZM17.7479 20.1201C10.1019 20.1201 3.88087 13.8991 3.88087 6.25311V5.40511L6.57487 4.07811L9.53387 8.02411L7.88587 10.2211V10.4711C7.88772 11.9672 8.48281 13.4016 9.54065 14.4596C10.5985 15.5176 12.0327 16.113 13.5289 16.1151H13.7789L15.9759 14.4671L19.9219 17.4261L18.5949 20.1201H17.7479Z" fill="#AEAEAE"/>
</svg>
