<svg width="555" height="86" viewBox="0 0 555 86" fill="none" xmlns="http://www.w3.org/2000/svg">
<path d="M73.5391 31.0078V32.0078H74.6668L74.5319 30.8882L73.5391 31.0078ZM73.5391 55.7344L74.5314 55.8581L74.6708 54.7395L73.5436 54.7344L73.5391 55.7344ZM56.4297 55.6562L56.4343 54.6563L55.6002 54.6525L55.4468 55.4722L56.4297 55.6562ZM56.4297 31.0078L55.4403 31.1529L55.5657 32.0078H56.4297V31.0078ZM74.5319 30.8882C73.3901 21.4135 69.221 13.8953 62.9162 8.75337C56.6198 3.61828 48.2601 0.906247 38.8125 0.906247V2.90625C47.8805 2.90625 55.7708 5.50672 61.6522 10.3033C67.5251 15.093 71.4615 22.1256 72.5462 31.1275L74.5319 30.8882ZM38.8125 0.906247C28.0044 0.906247 18.4155 4.72681 11.5311 11.9487C4.64787 19.1692 0.546875 29.706 0.546875 43H2.54688C2.54688 30.1221 6.51228 20.112 12.9787 13.3287C19.4439 6.54662 28.4877 2.90625 38.8125 2.90625V0.906247ZM0.546875 43C0.546875 56.2509 4.5771 66.7877 11.4263 74.0197C18.278 81.2543 27.8688 85.0937 38.8125 85.0937V83.0937C28.3499 83.0937 19.3079 79.4332 12.8784 72.6444C6.44634 65.8529 2.54688 55.8429 2.54688 43H0.546875ZM38.8125 85.0937C59.833 85.0937 72.6341 71.077 74.5314 55.8581L72.5467 55.6107C70.7722 69.8449 58.8076 83.0937 38.8125 83.0937V85.0937ZM73.5436 54.7344L56.4343 54.6563L56.4251 56.6562L73.5345 56.7344L73.5436 54.7344ZM55.4468 55.4722C54.6882 59.5242 52.7315 62.6689 49.9336 64.8081C47.1286 66.9529 43.4167 68.1328 39.0859 68.1328V70.1328C43.7786 70.1328 47.9378 68.8518 51.1484 66.3969C54.3662 63.9366 56.5696 60.343 57.4126 55.8403L55.4468 55.4722ZM39.0859 68.1328C33.2794 68.1328 28.4796 65.9878 25.1103 61.8509C21.7211 57.6895 19.6953 51.4068 19.6953 43H17.6953C17.6953 51.7026 19.7906 58.4863 23.5596 63.1139C27.3485 67.7661 32.744 70.1328 39.0859 70.1328V68.1328ZM19.6953 43C19.6953 34.8303 21.6906 28.5433 25.0851 24.3198C28.4596 20.1213 33.2903 17.8672 39.2031 17.8672V15.8672C32.7332 15.8672 27.3099 18.3592 23.5262 23.0669C19.7625 27.7497 17.6953 34.5291 17.6953 43H19.6953ZM39.2031 17.8672C43.6385 17.8672 47.3895 19.1472 50.1728 21.4166C52.9511 23.682 54.8289 26.9841 55.4403 31.1529L57.4191 30.8627C56.7415 26.2424 54.6348 22.4743 51.4366 19.8666C48.2433 17.2629 44.0256 15.8672 39.2031 15.8672V17.8672ZM56.4297 32.0078H73.5391V30.0078H56.4297V32.0078ZM162.384 43C162.384 29.704 158.252 19.1666 151.329 11.9466C144.405 4.72583 134.768 0.906247 123.923 0.906247V2.90625C134.288 2.90625 143.381 6.5476 149.885 13.3308C156.39 20.1146 160.384 30.1241 160.384 43H162.384ZM123.923 0.906247C113.019 0.906247 103.382 4.72515 96.4716 11.9474C89.5628 19.1684 85.4617 29.706 85.4617 43H87.4617C87.4617 30.1221 91.4271 20.1129 97.9167 13.33C104.405 6.54828 113.498 2.90625 123.923 2.90625V0.906247ZM85.4617 43C85.4617 56.2364 89.5633 66.7732 96.4709 74.0079C103.38 81.2441 113.017 85.0937 123.923 85.0937V83.0937C113.5 83.0937 104.407 79.4239 97.9174 72.6268C91.4265 65.8284 87.4617 55.8183 87.4617 43H85.4617ZM123.923 85.0937C134.768 85.0937 144.405 81.2742 151.329 74.0534C158.252 66.8334 162.384 56.296 162.384 43H160.384C160.384 55.8759 156.39 65.8854 149.885 72.6692C143.381 79.4524 134.288 83.0937 123.923 83.0937V85.0937ZM143.235 43C143.235 51.332 141.257 57.6166 137.899 61.7977C134.563 65.9518 129.784 68.1328 123.923 68.1328V70.1328C130.327 70.1328 135.705 67.724 139.458 63.05C143.19 58.4029 145.235 51.6211 145.235 43H143.235ZM123.923 68.1328C118.041 68.1328 113.263 65.9513 109.932 61.7982C106.579 57.6176 104.61 51.3331 104.61 43H102.61C102.61 51.6201 104.645 58.402 108.372 63.0495C112.121 67.7245 117.5 70.1328 123.923 70.1328V68.1328ZM104.61 43C104.61 34.6669 106.579 28.3824 109.932 24.2018C113.263 20.0487 118.041 17.8672 123.923 17.8672V15.8672C117.5 15.8672 112.121 18.2755 108.372 22.9505C104.645 27.598 102.61 34.3799 102.61 43H104.61ZM123.923 17.8672C129.784 17.8672 134.563 20.0482 137.899 24.2023C141.257 28.3834 143.235 34.668 143.235 43H145.235C145.235 34.3789 143.19 27.5971 139.458 22.95C135.705 18.276 130.327 15.8672 123.923 15.8672V17.8672ZM243.027 3H244.027V2H243.027V3ZM226.191 3V2H225.191V3H226.191ZM226.191 53.3125V54.3125H227.191V53.3125H226.191ZM225.488 53.3125L224.663 53.8784L224.961 54.3125H225.488V53.3125ZM190.957 3L191.781 2.43412L191.483 2H190.957V3ZM176.113 3V2H175.113V3H176.113ZM176.113 83H175.113V84H176.113V83ZM193.027 83V84H194.027V83H193.027ZM193.027 32.6484V31.6484H192.027V32.6484H193.027ZM193.613 32.6484L194.435 32.0798L194.137 31.6484H193.613V32.6484ZM228.418 83L227.595 83.5686L227.893 84H228.418V83ZM243.027 83V84H244.027V83H243.027ZM243.027 2H226.191V4H243.027V2ZM225.191 3V53.3125H227.191V3H225.191ZM226.191 52.3125H225.488V54.3125H226.191V52.3125ZM226.312 52.7466L191.781 2.43412L190.132 3.56587L224.663 53.8784L226.312 52.7466ZM190.957 2H176.113V4H190.957V2ZM175.113 3V83H177.113V3H175.113ZM176.113 84H193.027V82H176.113V84ZM194.027 83V32.6484H192.027V83H194.027ZM193.027 33.6484H193.613V31.6484H193.027V33.6484ZM192.79 33.217L227.595 83.5686L229.24 82.4314L194.435 32.0798L192.79 33.217ZM228.418 84H243.027V82H228.418V84ZM244.027 83V3H242.027V83H244.027ZM256.155 16.9453H255.155V17.9453H256.155V16.9453ZM280.647 16.9453H281.647V15.9453H280.647V16.9453ZM280.647 83H279.647V84H280.647V83ZM297.366 83V84H298.366V83H297.366ZM297.366 16.9453V15.9453H296.366V16.9453H297.366ZM321.858 16.9453V17.9453H322.858V16.9453H321.858ZM321.858 3H322.858V2H321.858V3ZM256.155 3V2H255.155V3H256.155ZM256.155 17.9453H280.647V15.9453H256.155V17.9453ZM279.647 16.9453V83H281.647V16.9453H279.647ZM280.647 84H297.366V82H280.647V84ZM298.366 83V16.9453H296.366V83H298.366ZM297.366 17.9453H321.858V15.9453H297.366V17.9453ZM322.858 16.9453V3H320.858V16.9453H322.858ZM321.858 2H256.155V4H321.858V2ZM255.155 3V16.9453H257.155V3H255.155ZM338.784 83V84H339.511L339.735 83.3095L338.784 83ZM344.722 64.7578V63.7578H343.996L343.771 64.4483L344.722 64.7578ZM373.589 64.7578L374.54 64.4483L374.315 63.7578H373.589V64.7578ZM379.527 83L378.576 83.3095L378.8 84H379.527V83ZM397.652 83V84H399.054L398.597 82.6741L397.652 83ZM370.073 3L371.019 2.67409L370.786 2H370.073V3ZM348.277 3V2H347.564L347.331 2.67368L348.277 3ZM320.659 83L319.714 82.6737L319.256 84H320.659V83ZM349.019 51.5547L348.068 51.2455L347.642 52.5547H349.019V51.5547ZM358.862 21.2812V20.2812H358.136L357.911 20.972L358.862 21.2812ZM359.487 21.2812L360.438 20.972L360.214 20.2812H359.487V21.2812ZM369.331 51.5547V52.5547H370.708L370.282 51.2455L369.331 51.5547ZM339.735 83.3095L345.673 65.0673L343.771 64.4483L337.833 82.6905L339.735 83.3095ZM344.722 65.7578H373.589V63.7578H344.722V65.7578ZM372.638 65.0673L378.576 83.3095L380.477 82.6905L374.54 64.4483L372.638 65.0673ZM379.527 84H397.652V82H379.527V84ZM398.597 82.6741L371.019 2.67409L369.128 3.3259L396.706 83.3259L398.597 82.6741ZM370.073 2H348.277V4H370.073V2ZM347.331 2.67368L319.714 82.6737L321.605 83.3263L349.222 3.32632L347.331 2.67368ZM320.659 84H338.784V82H320.659V84ZM349.97 51.8639L359.813 21.5905L357.911 20.972L348.068 51.2455L349.97 51.8639ZM358.862 22.2812H359.487V20.2812H358.862V22.2812ZM358.537 21.5905L368.38 51.8639L370.282 51.2455L360.438 20.972L358.537 21.5905ZM369.331 50.5547H349.019V52.5547H369.331V50.5547ZM476.307 31.0078V32.0078H477.434L477.299 30.8882L476.307 31.0078ZM476.307 55.7344L477.299 55.8581L477.438 54.7395L476.311 54.7344L476.307 55.7344ZM459.197 55.6562L459.202 54.6563L458.368 54.6525L458.214 55.4722L459.197 55.6562ZM459.197 31.0078L458.208 31.1529L458.333 32.0078H459.197V31.0078ZM477.299 30.8882C476.158 21.4135 471.989 13.8953 465.684 8.75337C459.387 3.61828 451.028 0.906247 441.58 0.906247V2.90625C450.648 2.90625 458.538 5.50672 464.42 10.3033C470.293 15.093 474.229 22.1256 475.314 31.1275L477.299 30.8882ZM441.58 0.906247C430.772 0.906247 421.183 4.72681 414.299 11.9487C407.415 19.1692 403.314 29.706 403.314 43H405.314C405.314 30.1221 409.28 20.112 415.746 13.3287C422.211 6.54662 431.255 2.90625 441.58 2.90625V0.906247ZM403.314 43C403.314 56.2509 407.345 66.7877 414.194 74.0197C421.046 81.2543 430.636 85.0937 441.58 85.0937V83.0937C431.118 83.0937 422.076 79.4332 415.646 72.6444C409.214 65.8529 405.314 55.8429 405.314 43H403.314ZM441.58 85.0937C462.601 85.0937 475.402 71.077 477.299 55.8581L475.314 55.6107C473.54 69.8449 461.575 83.0937 441.58 83.0937V85.0937ZM476.311 54.7344L459.202 54.6563L459.193 56.6562L476.302 56.7344L476.311 54.7344ZM458.214 55.4722C457.456 59.5242 455.499 62.6689 452.701 64.8081C449.896 66.9529 446.184 68.1328 441.854 68.1328V70.1328C446.546 70.1328 450.705 68.8518 453.916 66.3969C457.134 63.9366 459.337 60.343 460.18 55.8403L458.214 55.4722ZM441.854 68.1328C436.047 68.1328 431.247 65.9878 427.878 61.8509C424.489 57.6895 422.463 51.4068 422.463 43H420.463C420.463 51.7026 422.558 58.4863 426.327 63.1139C430.116 67.7661 435.512 70.1328 441.854 70.1328V68.1328ZM422.463 43C422.463 34.8303 424.458 28.5433 427.853 24.3198C431.227 20.1213 436.058 17.8672 441.971 17.8672V15.8672C435.501 15.8672 430.078 18.3592 426.294 23.0669C422.53 27.7497 420.463 34.5291 420.463 43H422.463ZM441.971 17.8672C446.406 17.8672 450.157 19.1472 452.94 21.4166C455.719 23.682 457.596 26.9841 458.208 31.1529L460.187 30.8627C459.509 26.2424 457.402 22.4743 454.204 19.8666C451.011 17.2629 446.793 15.8672 441.971 15.8672V17.8672ZM459.197 32.0078H476.307V30.0078H459.197V32.0078ZM487.589 16.9453H486.589V17.9453H487.589V16.9453ZM512.081 16.9453H513.081V15.9453H512.081V16.9453ZM512.081 83H511.081V84H512.081V83ZM528.8 83V84H529.8V83H528.8ZM528.8 16.9453V15.9453H527.8V16.9453H528.8ZM553.292 16.9453V17.9453H554.292V16.9453H553.292ZM553.292 3H554.292V2H553.292V3ZM487.589 3V2H486.589V3H487.589ZM487.589 17.9453H512.081V15.9453H487.589V17.9453ZM511.081 16.9453V83H513.081V16.9453H511.081ZM512.081 84H528.8V82H512.081V84ZM529.8 83V16.9453H527.8V83H529.8ZM528.8 17.9453H553.292V15.9453H528.8V17.9453ZM554.292 16.9453V3H552.292V16.9453H554.292ZM553.292 2H487.589V4H553.292V2ZM486.589 3V16.9453H488.589V3H486.589Z" fill="#EFEFEF"/>
</svg>
