<svg width="60" height="60" viewBox="0 0 60 60" fill="none" xmlns="http://www.w3.org/2000/svg">
<g clip-path="url(#clip0)">
<rect width="59.7563" height="60" fill="url(#paint0_linear)"/>
<path d="M1.21132 10.5862C-0.37681 12.1762 -0.0374347 14.415 1.22632 15.6769C1.27694 15.7256 6.35257 20.5744 13.4907 27.7125C13.5775 27.8002 13.6809 27.8699 13.7948 27.9174C13.9088 27.965 14.031 27.9895 14.1544 27.9895C14.2779 27.9895 14.4001 27.965 14.5141 27.9174C14.628 27.8699 14.7314 27.8002 14.8182 27.7125C14.9939 27.5367 15.0927 27.2983 15.0927 27.0497C15.0927 26.8011 14.9939 26.5627 14.8182 26.3869C13.7419 25.3106 12.7182 24.2925 11.7469 23.3287L14.7263 20.3494C14.8971 20.1725 14.9916 19.9357 14.9894 19.6899C14.9873 19.4441 14.8887 19.209 14.7149 19.0352C14.5411 18.8613 14.3059 18.7627 14.0601 18.7606C13.8143 18.7585 13.5775 18.853 13.4007 19.0237L10.4138 22.0106C8.97156 20.5865 7.52468 19.1671 6.07319 17.7525L12.8513 10.9744C13.0221 10.7975 13.1166 10.5607 13.1144 10.3149C13.1123 10.0691 13.0137 9.83397 12.8399 9.66015C12.6661 9.48633 12.4309 9.38773 12.1851 9.3856C11.9393 9.38346 11.7025 9.47796 11.5257 9.64873L4.72694 16.4475C3.34694 15.1106 2.55194 14.3512 2.53882 14.3381C2.14319 13.9425 1.62382 12.8287 2.53882 11.9137L11.9138 2.53873C12.2757 2.17123 13.2394 1.44185 14.2969 2.49373C14.3438 2.54623 19.0782 7.92373 26.3044 15.15C26.4813 15.3208 26.7181 15.4152 26.9639 15.4131C27.2097 15.411 27.4448 15.3124 27.6186 15.1386C27.7925 14.9647 27.8911 14.7296 27.8932 14.4838C27.8953 14.238 27.8008 14.0012 27.6301 13.8244C20.4488 6.64498 15.7501 1.30873 15.6638 1.21123C13.9163 -0.532521 11.8088 -0.00939556 10.5882 1.21123L1.21132 10.5862Z" fill="#E53E3E"/>
<path d="M40.9763 45.2738C40.8004 45.098 40.562 44.9993 40.3134 44.9993C40.0648 44.9993 39.8264 45.098 39.6506 45.2738L36.6675 48.255C35.7142 47.2889 34.758 46.3258 33.7988 45.3656C33.6219 45.1949 33.3851 45.1004 33.1393 45.1025C32.8935 45.1046 32.6584 45.2032 32.4845 45.3771C32.3107 45.5509 32.2121 45.786 32.21 46.0318C32.2079 46.2776 32.3024 46.5144 32.4731 46.6913C36.4904 50.6984 40.4458 54.767 44.3381 58.8956C44.9813 59.5406 45.8625 59.895 46.8188 59.895C47.8031 59.895 48.7988 59.5106 49.4156 58.8919L58.7869 49.41C59.9663 48.2306 60.0338 46.23 58.9331 45.1256L46.3594 32.5538C46.1826 32.383 45.9457 32.2885 45.6999 32.2906C45.4541 32.2928 45.219 32.3914 45.0452 32.5652C44.8714 32.739 44.7728 32.9741 44.7706 33.2199C44.7685 33.4658 44.863 33.7026 45.0338 33.8794L57.6075 46.4513C57.9825 46.8263 57.9113 47.6363 57.4594 48.0881L48.0863 57.57C47.8706 57.7875 47.3813 58.02 46.8188 58.02C46.4963 58.02 46.035 57.9413 45.6863 57.5906C45.6675 57.57 44.8819 56.7319 43.5188 55.305L50.3513 48.4725C50.522 48.2957 50.6165 48.0589 50.6144 47.8131C50.6122 47.5673 50.5137 47.3321 50.3398 47.1583C50.166 46.9845 49.9309 46.8859 49.6851 46.8838C49.4393 46.8816 49.2024 46.9761 49.0256 47.1469L42.2213 53.9513C40.8159 52.4905 39.4034 51.0368 37.9838 49.59L40.9763 46.5975C41.1514 46.4218 41.2498 46.1838 41.2498 45.9356C41.2498 45.6875 41.1514 45.4495 40.9763 45.2738Z" fill="#E53E3E"/>
<path d="M0.266214 59.6794C0.385852 59.8015 0.536614 59.8886 0.702187 59.9312C0.86776 59.9739 1.04184 59.9704 1.20559 59.9212L19.9556 54.3356C20.1063 54.2915 20.2431 54.2095 20.3531 54.0975L52.3968 21.8381C52.4418 21.7931 52.4643 21.735 52.4981 21.6844L59.3531 14.8294C59.6256 14.5589 59.8419 14.2371 59.9895 13.8826C60.1371 13.5282 60.2131 13.148 60.2131 12.764C60.2131 12.3801 60.1371 11.9999 59.9895 11.6454C59.8419 11.291 59.6256 10.9692 59.3531 10.6987L49.5375 0.88498C48.435 -0.21752 46.5093 -0.21752 45.4068 0.88498L38.3962 7.89561C38.3512 7.94061 38.3268 7.99873 38.2931 8.05123L6.20059 40.1456C6.09569 40.25 6.01725 40.3779 5.97184 40.5187L0.0468391 58.7344C-0.00646415 58.8969 -0.0141975 59.0709 0.0244795 59.2375C0.0631566 59.4041 0.146764 59.5569 0.266214 59.6794ZM39.1125 9.88311L41.0606 11.8312L11.955 41.0156L8.71684 40.2806L39.1125 9.88311ZM13.125 42.4987L42.3881 13.1587L46.9556 17.7262L17.4281 46.875H13.125V42.4987ZM50.4075 21.18L19.95 51.8437L18.8681 48.09L48.2812 19.0519L50.4075 21.18ZM7.48684 41.9231L11.25 42.7781V47.8125C11.25 48.0611 11.3487 48.2996 11.5246 48.4754C11.7004 48.6512 11.9388 48.75 12.1875 48.75H17.1075L18.2962 52.875L2.38121 57.6169L7.48684 41.9231ZM46.7343 2.21061C46.9333 2.0198 47.1983 1.91328 47.474 1.91328C47.7497 1.91328 48.0147 2.0198 48.2137 2.21061L58.0293 12.0262C58.1272 12.123 58.2049 12.2383 58.2579 12.3653C58.3109 12.4924 58.338 12.6287 58.3379 12.7663C58.3377 12.904 58.3102 13.0402 58.2569 13.1671C58.2036 13.294 58.1256 13.4091 58.0275 13.5056L51.7068 19.8281L40.4137 8.53498L46.7343 2.21061Z" fill="#E53E3E"/>
</g>
<defs>
<linearGradient id="paint0_linear" x1="29.8781" y1="0" x2="29.8781" y2="60" gradientUnits="userSpaceOnUse">
<stop stop-color="white"/>
<stop offset="1" stop-color="white" stop-opacity="0"/>
</linearGradient>
<clipPath id="clip0">
<rect width="59.7563" height="60" fill="white"/>
</clipPath>
</defs>
</svg>
