<svg width="427" height="86" viewBox="0 0 427 86" fill="none" xmlns="http://www.w3.org/2000/svg">
<path d="M1.95312 83H0.953125V84H1.95312V83ZM53.1641 83V84H54.1641V83H53.1641ZM53.1641 69.0547H54.1641V68.0547H53.1641V69.0547ZM18.8672 69.0547H17.8672V70.0547H18.8672V69.0547ZM18.8672 3H19.8672V2H18.8672V3ZM1.95312 3V2H0.953125V3H1.95312ZM1.95312 84H53.1641V82H1.95312V84ZM54.1641 83V69.0547H52.1641V83H54.1641ZM53.1641 68.0547H18.8672V70.0547H53.1641V68.0547ZM19.8672 69.0547V3H17.8672V69.0547H19.8672ZM18.8672 2H1.95312V4H18.8672V2ZM0.953125 3V83H2.95312V3H0.953125ZM82.3953 83V84H83.1215L83.3462 83.3095L82.3953 83ZM88.3328 64.7578V63.7578H87.6067L87.3819 64.4483L88.3328 64.7578ZM117.2 64.7578L118.151 64.4483L117.926 63.7578H117.2V64.7578ZM123.137 83L122.187 83.3095L122.411 84H123.137V83ZM141.263 83V84H142.665L142.208 82.6741L141.263 83ZM113.684 3L114.63 2.67409L114.397 2H113.684V3ZM91.8875 3V2H91.1748L90.9422 2.67368L91.8875 3ZM64.2703 83L63.325 82.6737L62.8672 84H64.2703V83ZM92.6297 51.5547L91.6787 51.2455L91.253 52.5547H92.6297V51.5547ZM102.473 21.2812V20.2812H101.747L101.522 20.972L102.473 21.2812ZM103.098 21.2812L104.049 20.972L103.825 20.2812H103.098V21.2812ZM112.942 51.5547V52.5547H114.319L113.893 51.2455L112.942 51.5547ZM83.3462 83.3095L89.2837 65.0673L87.3819 64.4483L81.4444 82.6905L83.3462 83.3095ZM88.3328 65.7578H117.2V63.7578H88.3328V65.7578ZM116.249 65.0673L122.187 83.3095L124.088 82.6905L118.151 64.4483L116.249 65.0673ZM123.137 84H141.263V82H123.137V84ZM142.208 82.6741L114.63 2.67409L112.739 3.3259L140.317 83.3259L142.208 82.6741ZM113.684 2H91.8875V4H113.684V2ZM90.9422 2.67368L63.325 82.6737L65.2156 83.3263L92.8328 3.32632L90.9422 2.67368ZM64.2703 84H82.3953V82H64.2703V84ZM93.5807 51.8639L103.424 21.5905L101.522 20.972L91.6787 51.2455L93.5807 51.8639ZM102.473 22.2812H103.098V20.2812H102.473V22.2812ZM102.147 21.5905L111.991 51.8639L113.893 51.2455L104.049 20.972L102.147 21.5905ZM112.942 50.5547H92.6297V52.5547H112.942V50.5547ZM140.162 16.9453H139.162V17.9453H140.162V16.9453ZM164.654 16.9453H165.654V15.9453H164.654V16.9453ZM164.654 83H163.654V84H164.654V83ZM181.373 83V84H182.373V83H181.373ZM181.373 16.9453V15.9453H180.373V16.9453H181.373ZM205.865 16.9453V17.9453H206.865V16.9453H205.865ZM205.865 3H206.865V2H205.865V3ZM140.162 3V2H139.162V3H140.162ZM140.162 17.9453H164.654V15.9453H140.162V17.9453ZM163.654 16.9453V83H165.654V16.9453H163.654ZM164.654 84H181.373V82H164.654V84ZM182.373 83V16.9453H180.373V83H182.373ZM181.373 17.9453H205.865V15.9453H181.373V17.9453ZM206.865 16.9453V3H204.865V16.9453H206.865ZM205.865 2H140.162V4H205.865V2ZM139.162 3V16.9453H141.162V3H139.162ZM218.885 83H217.885V84H218.885V83ZM272.948 83V84H273.948V83H272.948ZM272.948 69.0547H273.948V68.0547H272.948V69.0547ZM235.799 69.0547H234.799V70.0547H235.799V69.0547ZM235.799 49.9531V48.9531H234.799V49.9531H235.799ZM270.018 49.9531V50.9531H271.018V49.9531H270.018ZM270.018 36.0078H271.018V35.0078H270.018V36.0078ZM235.799 36.0078H234.799V37.0078H235.799V36.0078ZM235.799 16.9453V15.9453H234.799V16.9453H235.799ZM272.791 16.9453V17.9453H273.791V16.9453H272.791ZM272.791 3H273.791V2H272.791V3ZM218.885 3V2H217.885V3H218.885ZM218.885 84H272.948V82H218.885V84ZM273.948 83V69.0547H271.948V83H273.948ZM272.948 68.0547H235.799V70.0547H272.948V68.0547ZM236.799 69.0547V49.9531H234.799V69.0547H236.799ZM235.799 50.9531H270.018V48.9531H235.799V50.9531ZM271.018 49.9531V36.0078H269.018V49.9531H271.018ZM270.018 35.0078H235.799V37.0078H270.018V35.0078ZM236.799 36.0078V16.9453H234.799V36.0078H236.799ZM235.799 17.9453H272.791V15.9453H235.799V17.9453ZM273.791 16.9453V3H271.791V16.9453H273.791ZM272.791 2H218.885V4H272.791V2ZM217.885 3V83H219.885V3H217.885ZM331.837 26.0078L330.842 26.1067L330.932 27.0078H331.837V26.0078ZM348.048 26.0078V27.0078H349.065L349.048 25.9914L348.048 26.0078ZM287.97 26.125L288.97 26.1283L288.97 26.1196L287.97 26.125ZM309.767 47.9219L310.01 46.9519L310 46.9495L309.767 47.9219ZM318.478 50.1094L318.234 51.0793L318.242 51.0813L318.478 50.1094ZM332.071 60.1094L333.072 60.116L333.071 60.1021L332.071 60.1094ZM302.228 57.8828L303.225 57.8147L303.162 56.8828H302.228V57.8828ZM285.861 57.8828V56.8828H284.835L284.861 57.9076L285.861 57.8828ZM349.142 60.1484L350.142 60.1511L350.142 60.1455L349.142 60.1484ZM325.157 36.6328L324.925 37.6055L324.938 37.6085L325.157 36.6328ZM317.97 34.9141L318.202 33.9414L318.194 33.9396L317.97 34.9141ZM305.314 24.9922L306.313 25.0126L306.314 25.0024V24.9922H305.314ZM331.837 27.0078H348.048V25.0078H331.837V27.0078ZM349.048 25.9914C348.926 18.5712 345.806 12.2677 340.39 7.83642C334.989 3.41693 327.367 0.906247 318.282 0.906247V2.90625C327.01 2.90625 334.154 5.31744 339.124 9.38427C344.079 13.4393 346.936 19.1866 347.048 26.0242L349.048 25.9914ZM318.282 0.906247C309.338 0.906247 301.508 3.37602 295.902 7.78001C290.277 12.1982 286.929 18.5388 286.97 26.1304L288.97 26.1196C288.933 19.18 291.971 13.4112 297.137 9.3528C302.322 5.28023 309.688 2.90625 318.282 2.90625V0.906247ZM286.97 26.1217C286.95 32.2867 289.126 37.1921 293.097 40.9571C297.037 44.6928 302.684 47.2512 309.534 48.8943L310 46.9495C303.334 45.3504 298.063 42.9087 294.473 39.5058C290.915 36.1322 288.951 31.7601 288.97 26.1283L286.97 26.1217ZM309.523 48.8918L318.234 51.0793L318.721 49.1395L310.01 46.952L309.523 48.8918ZM318.242 51.0813C322.583 52.1325 325.82 53.2521 327.965 54.7066C330.043 56.1152 331.055 57.8015 331.072 60.1166L333.071 60.1021C333.049 57.0266 331.619 54.7676 329.088 53.0512C326.624 51.3807 323.083 50.1956 318.713 49.1375L318.242 51.0813ZM331.071 60.1027C331.054 62.6785 329.842 64.8489 327.616 66.4097C325.364 67.9882 322.047 68.9531 317.892 68.9531V70.9531C322.33 70.9531 326.084 69.9259 328.764 68.0474C331.469 66.1511 333.05 63.3997 333.071 60.116L331.071 60.1027ZM317.892 68.9531C313.638 68.9531 310.088 67.9686 307.56 66.1146C305.062 64.2818 303.48 61.5412 303.225 57.8147L301.23 57.9509C301.522 62.2322 303.378 65.5268 306.377 67.7272C309.348 69.9064 313.356 70.9531 317.892 70.9531V68.9531ZM302.228 56.8828H285.861V58.8828H302.228V56.8828ZM284.861 57.9076C285.082 66.8152 288.394 73.6739 294.235 78.2821C300.046 82.8663 308.242 85.1328 318.087 85.1328V83.1328C308.518 83.1328 300.816 80.9266 295.474 76.712C290.163 72.5214 287.069 66.2551 286.86 57.858L284.861 57.9076ZM318.087 85.1328C327.999 85.1328 335.995 82.7651 341.541 78.421C347.114 74.0553 350.121 67.7623 350.142 60.1511L348.142 60.1458C348.123 67.183 345.369 72.8822 340.307 76.8465C335.219 80.8326 327.707 83.1328 318.087 83.1328V85.1328ZM350.142 60.1455C350.121 53.1993 347.479 47.8336 343.018 43.8237C338.59 39.8429 332.42 37.24 325.377 35.6571L324.938 37.6085C331.801 39.1506 337.604 41.6454 341.681 45.3111C345.727 48.9476 348.123 53.7773 348.142 60.1514L350.142 60.1455ZM325.39 35.6602L318.202 33.9415L317.737 35.8866L324.925 37.6054L325.39 35.6602ZM318.194 33.9396C314.746 33.1453 311.702 32.1329 309.551 30.6776C307.445 29.2532 306.263 27.4613 306.313 25.0126L304.314 24.9718C304.247 28.2653 305.916 30.6335 308.43 32.3341C310.898 34.0038 314.241 35.0813 317.745 35.8885L318.194 33.9396ZM306.314 24.9922C306.314 22.7434 307.296 20.8029 309.224 19.3933C311.18 17.9639 314.164 17.0469 318.165 17.0469V15.0469C313.886 15.0469 310.444 16.0244 308.044 17.7786C305.617 19.5526 304.314 22.0848 304.314 24.9922H306.314ZM318.165 17.0469C322.068 17.0469 325.101 17.934 327.209 19.476C329.292 21.0004 330.556 23.2243 330.842 26.1067L332.832 25.9089C332.494 22.5023 330.964 19.7457 328.389 17.8619C325.839 15.9957 322.348 15.0469 318.165 15.0469V17.0469ZM359.672 16.9453H358.672V17.9453H359.672V16.9453ZM384.164 16.9453H385.164V15.9453H384.164V16.9453ZM384.164 83H383.164V84H384.164V83ZM400.883 83V84H401.883V83H400.883ZM400.883 16.9453V15.9453H399.883V16.9453H400.883ZM425.375 16.9453V17.9453H426.375V16.9453H425.375ZM425.375 3H426.375V2H425.375V3ZM359.672 3V2H358.672V3H359.672ZM359.672 17.9453H384.164V15.9453H359.672V17.9453ZM383.164 16.9453V83H385.164V16.9453H383.164ZM384.164 84H400.883V82H384.164V84ZM401.883 83V16.9453H399.883V83H401.883ZM400.883 17.9453H425.375V15.9453H400.883V17.9453ZM426.375 16.9453V3H424.375V16.9453H426.375ZM425.375 2H359.672V4H425.375V2ZM358.672 3V16.9453H360.672V3H358.672Z" fill="#EFEFEF"/>
</svg>
