<?xml version="1.0" encoding="UTF-8" standalone="no"?>
<!DOCTYPE svg PUBLIC "-//W3C//DTD SVG 1.1//EN" "http://www.w3.org/Graphics/SVG/1.1/DTD/svg11.dtd">
<svg width="100%" height="100%" viewBox="0 0 224 223" version="1.1" xmlns="http://www.w3.org/2000/svg" xmlns:xlink="http://www.w3.org/1999/xlink" xml:space="preserve" xmlns:serif="http://www.serif.com/" style="fill-rule:evenodd;clip-rule:evenodd;stroke-linejoin:round;stroke-miterlimit:2;">
    <g transform="matrix(1,0,0,1,-1048.2,-288.699)">
        <g transform="matrix(3.68267,0,0,3.68267,1049.2,289.485)">
            <path d="M1.211,10.586C-0.377,12.176 -0.037,14.415 1.226,15.677C1.277,15.726 6.353,20.574 13.491,27.712C13.578,27.8 13.681,27.87 13.795,27.917C13.909,27.965 14.031,27.99 14.154,27.99C14.278,27.99 14.4,27.965 14.514,27.917C14.628,27.87 14.731,27.8 14.818,27.712C14.994,27.537 15.093,27.298 15.093,27.05C15.093,26.801 14.994,26.563 14.818,26.387C13.742,25.311 12.718,24.293 11.747,23.329L14.726,20.349C14.897,20.173 14.992,19.936 14.989,19.69C14.987,19.444 14.889,19.209 14.715,19.035C14.541,18.861 14.306,18.763 14.06,18.761C13.814,18.759 13.578,18.853 13.401,19.024L10.414,22.011C8.972,20.587 7.525,19.167 6.073,17.753L12.851,10.974C13.022,10.798 13.117,10.561 13.114,10.315C13.112,10.069 13.014,9.834 12.84,9.66C12.666,9.486 12.431,9.388 12.185,9.386C11.939,9.383 11.703,9.478 11.526,9.649L4.727,16.448C3.347,15.111 2.552,14.351 2.539,14.338C2.143,13.943 1.624,12.829 2.539,11.914L11.914,2.539C12.276,2.171 13.239,1.442 14.297,2.494C14.344,2.546 19.078,7.924 26.304,15.15C26.481,15.321 26.718,15.415 26.964,15.413C27.21,15.411 27.445,15.312 27.619,15.139C27.793,14.965 27.891,14.73 27.893,14.484C27.895,14.238 27.801,14.001 27.63,13.824C20.449,6.645 15.75,1.309 15.664,1.211C13.916,-0.533 11.809,-0.009 10.588,1.211L1.211,10.586Z" style="fill:none;fill-rule:nonzero;stroke:rgb(255,0,62);stroke-width:0.54px;"/>
            <path d="M40.976,45.274C40.8,45.098 40.562,44.999 40.313,44.999C40.065,44.999 39.826,45.098 39.651,45.274L36.667,48.255C35.714,47.289 34.758,46.326 33.799,45.366C33.622,45.195 33.385,45.1 33.139,45.103C32.894,45.105 32.658,45.203 32.484,45.377C32.311,45.551 32.212,45.786 32.21,46.032C32.208,46.278 32.302,46.514 32.473,46.691C36.49,50.698 40.446,54.767 44.338,58.896C44.981,59.541 45.862,59.895 46.819,59.895C47.803,59.895 48.799,59.511 49.416,58.892L58.787,49.41C59.966,48.231 60.034,46.23 58.933,45.126L46.359,32.554C46.183,32.383 45.946,32.289 45.7,32.291C45.454,32.293 45.219,32.391 45.045,32.565C44.871,32.739 44.773,32.974 44.771,33.22C44.769,33.466 44.863,33.703 45.034,33.879L57.608,46.451C57.983,46.826 57.911,47.636 57.459,48.088L48.086,57.57C47.871,57.788 47.381,58.02 46.819,58.02C46.496,58.02 46.035,57.941 45.686,57.591C45.667,57.57 44.882,56.732 43.519,55.305L50.351,48.472C50.522,48.296 50.617,48.059 50.614,47.813C50.612,47.567 50.514,47.332 50.34,47.158C50.166,46.984 49.931,46.886 49.685,46.884C49.439,46.882 49.202,46.976 49.026,47.147L42.221,53.951C40.816,52.49 39.403,51.037 37.984,49.59L40.976,46.597C41.151,46.422 41.25,46.184 41.25,45.936C41.25,45.688 41.151,45.45 40.976,45.274Z" style="fill:none;fill-rule:nonzero;stroke:rgb(255,0,62);stroke-width:0.54px;"/>
            <path d="M0.266,59.679C0.386,59.801 0.537,59.889 0.702,59.931C0.868,59.974 1.042,59.97 1.206,59.921L19.956,54.336C20.106,54.292 20.243,54.21 20.353,54.097L52.397,21.838C52.442,21.793 52.464,21.735 52.498,21.684L59.353,14.829C59.626,14.559 59.842,14.237 59.99,13.883C60.137,13.528 60.213,13.148 60.213,12.764C60.213,12.38 60.137,12 59.99,11.645C59.842,11.291 59.626,10.969 59.353,10.699L49.538,0.885C48.435,-0.218 46.509,-0.218 45.407,0.885L38.396,7.896C38.351,7.941 38.327,7.999 38.293,8.051L6.201,40.146C6.096,40.25 6.017,40.378 5.972,40.519L0.047,58.734C-0.006,58.897 -0.014,59.071 0.024,59.237C0.063,59.404 0.147,59.557 0.266,59.679ZM39.112,9.883L41.061,11.831L11.955,41.016L8.717,40.281L39.112,9.883ZM13.125,42.499L42.388,13.159L46.956,17.726L17.428,46.875L13.125,46.875L13.125,42.499ZM50.408,21.18L19.95,51.844L18.868,48.09L48.281,19.052L50.408,21.18ZM7.487,41.923L11.25,42.778L11.25,47.813C11.25,48.061 11.349,48.3 11.525,48.475C11.7,48.651 11.939,48.75 12.188,48.75L17.108,48.75L18.296,52.875L2.381,57.617L7.487,41.923ZM46.734,2.211C46.933,2.02 47.198,1.913 47.474,1.913C47.75,1.913 48.015,2.02 48.214,2.211L58.029,12.026C58.127,12.123 58.205,12.238 58.258,12.365C58.311,12.492 58.338,12.629 58.338,12.766C58.338,12.904 58.31,13.04 58.257,13.167C58.204,13.294 58.126,13.409 58.028,13.506L51.707,19.828L40.414,8.535L46.734,2.211Z" style="fill:none;fill-rule:nonzero;stroke:rgb(255,0,62);stroke-width:0.54px;"/>
        </g>
    </g>
</svg>
