<svg width="427" height="86" viewBox="0 0 427 86" fill="none" xmlns="http://www.w3.org/2000/svg">
<path d="M1.95312 83H0.953125V84H1.95312V83ZM18.8672 83V84H19.8672V83H18.8672ZM18.8672 57.0625V56.0625H17.8672V57.0625H18.8672ZM1.95312 3V2H0.953125V3H1.95312ZM18.8672 43.5078H17.8672V44.5078H18.8672V43.5078ZM18.8672 16.8281V15.8281H17.8672V16.8281H18.8672ZM1.95312 84H18.8672V82H1.95312V84ZM19.8672 83V57.0625H17.8672V83H19.8672ZM18.8672 58.0625H33.0859V56.0625H18.8672V58.0625ZM33.0859 58.0625C42.484 58.0625 50.0263 55.2558 55.226 50.3011C60.4294 45.3428 63.1875 38.3272 63.1875 30.1094H61.1875C61.1875 37.8681 58.594 44.3291 53.8463 48.8532C49.0948 53.3809 42.0863 56.0625 33.0859 56.0625V58.0625ZM63.1875 30.1094C63.1875 21.9357 60.4818 14.8851 55.3623 9.87787C50.2432 4.87107 42.806 2 33.5156 2V4C42.3893 4 49.288 6.73439 53.9639 11.3077C58.6393 15.8805 61.1875 22.3846 61.1875 30.1094H63.1875ZM33.5156 2H1.95312V4H33.5156V2ZM0.953125 3V83H2.95312V3H0.953125ZM19.8672 43.5078V16.8281H17.8672V43.5078H19.8672ZM18.8672 17.8281H30.2734V15.8281H18.8672V17.8281ZM30.2734 17.8281C34.98 17.8281 38.3228 19.106 40.4863 21.1992C42.6465 23.2891 43.7656 26.322 43.7656 30.1094H45.7656C45.7656 25.928 44.5214 22.3203 41.877 19.7618C39.2358 17.2065 35.3325 15.8281 30.2734 15.8281V17.8281ZM43.7656 30.1094C43.7656 33.8769 42.6465 36.9438 40.4894 39.07C38.3322 41.1964 35.0092 42.5078 30.3516 42.5078V44.5078C35.3814 44.5078 39.2655 43.0848 41.8934 40.4944C44.5215 37.9039 45.7656 34.2716 45.7656 30.1094H43.7656ZM30.3516 42.5078H18.8672V44.5078H30.3516V42.5078ZM75.3738 83H74.3738V84H75.3738V83ZM129.436 83V84H130.436V83H129.436ZM129.436 69.0547H130.436V68.0547H129.436V69.0547ZM92.2879 69.0547H91.2879V70.0547H92.2879V69.0547ZM92.2879 49.9531V48.9531H91.2879V49.9531H92.2879ZM126.507 49.9531V50.9531H127.507V49.9531H126.507ZM126.507 36.0078H127.507V35.0078H126.507V36.0078ZM92.2879 36.0078H91.2879V37.0078H92.2879V36.0078ZM92.2879 16.9453V15.9453H91.2879V16.9453H92.2879ZM129.28 16.9453V17.9453H130.28V16.9453H129.28ZM129.28 3H130.28V2H129.28V3ZM75.3738 3V2H74.3738V3H75.3738ZM75.3738 84H129.436V82H75.3738V84ZM130.436 83V69.0547H128.436V83H130.436ZM129.436 68.0547H92.2879V70.0547H129.436V68.0547ZM93.2879 69.0547V49.9531H91.2879V69.0547H93.2879ZM92.2879 50.9531H126.507V48.9531H92.2879V50.9531ZM127.507 49.9531V36.0078H125.507V49.9531H127.507ZM126.507 35.0078H92.2879V37.0078H126.507V35.0078ZM93.2879 36.0078V16.9453H91.2879V36.0078H93.2879ZM92.2879 17.9453H129.28V15.9453H92.2879V17.9453ZM130.28 16.9453V3H128.28V16.9453H130.28ZM129.28 2H75.3738V4H129.28V2ZM74.3738 3V83H76.3738V3H74.3738ZM219.443 43C219.443 29.704 215.311 19.1666 208.388 11.9466C201.465 4.72583 191.828 0.906246 180.982 0.906246V2.90625C191.347 2.90625 200.441 6.5476 206.945 13.3308C213.45 20.1146 217.443 30.1241 217.443 43H219.443ZM180.982 0.906246C170.079 0.906246 160.441 4.72515 153.531 11.9474C146.622 19.1684 142.521 29.706 142.521 43H144.521C144.521 30.1221 148.486 20.1129 154.976 13.33C161.465 6.54828 170.557 2.90625 180.982 2.90625V0.906246ZM142.521 43C142.521 56.2364 146.623 66.7732 153.53 74.0079C160.439 81.2441 170.077 85.0938 180.982 85.0938V83.0938C170.559 83.0938 161.466 79.4239 154.977 72.6268C148.486 65.8284 144.521 55.8183 144.521 43H142.521ZM180.982 85.0938C191.828 85.0938 201.465 81.2742 208.388 74.0534C215.311 66.8334 219.443 56.296 219.443 43H217.443C217.443 55.8759 213.45 65.8854 206.945 72.6692C200.441 79.4524 191.347 83.0938 180.982 83.0938V85.0938ZM200.295 43C200.295 51.332 198.316 57.6166 194.958 61.7977C191.622 65.9518 186.843 68.1328 180.982 68.1328V70.1328C187.386 70.1328 192.764 67.724 196.518 63.05C200.25 58.4029 202.295 51.6211 202.295 43H200.295ZM180.982 68.1328C175.1 68.1328 170.322 65.9513 166.992 61.7982C163.639 57.6176 161.67 51.3331 161.67 43H159.67C159.67 51.6201 161.704 58.4019 165.431 63.0495C169.181 67.7245 174.559 70.1328 180.982 70.1328V68.1328ZM161.67 43C161.67 34.6669 163.639 28.3824 166.992 24.2018C170.322 20.0487 175.1 17.8672 180.982 17.8672V15.8672C174.559 15.8672 169.181 18.2755 165.431 22.9505C161.704 27.598 159.67 34.3799 159.67 43H161.67ZM180.982 17.8672C186.843 17.8672 191.622 20.0482 194.958 24.2023C198.316 28.3834 200.295 34.668 200.295 43H202.295C202.295 34.3788 200.25 27.5971 196.518 22.95C192.764 18.276 187.386 15.8672 180.982 15.8672V17.8672ZM233.172 83H232.172V84H233.172V83ZM250.086 83V84H251.086V83H250.086ZM250.086 57.0625V56.0625H249.086V57.0625H250.086ZM233.172 3V2H232.172V3H233.172ZM250.086 43.5078H249.086V44.5078H250.086V43.5078ZM250.086 16.8281V15.8281H249.086V16.8281H250.086ZM233.172 84H250.086V82H233.172V84ZM251.086 83V57.0625H249.086V83H251.086ZM250.086 58.0625H264.305V56.0625H250.086V58.0625ZM264.305 58.0625C273.703 58.0625 281.245 55.2558 286.445 50.3011C291.649 45.3428 294.407 38.3272 294.407 30.1094H292.407C292.407 37.8681 289.813 44.3291 285.065 48.8532C280.314 53.3809 273.305 56.0625 264.305 56.0625V58.0625ZM294.407 30.1094C294.407 21.9357 291.701 14.8851 286.581 9.87787C281.462 4.87107 274.025 2 264.735 2V4C273.608 4 280.507 6.73439 285.183 11.3077C289.858 15.8805 292.407 22.3846 292.407 30.1094H294.407ZM264.735 2H233.172V4H264.735V2ZM232.172 3V83H234.172V3H232.172ZM251.086 43.5078V16.8281H249.086V43.5078H251.086ZM250.086 17.8281H261.493V15.8281H250.086V17.8281ZM261.493 17.8281C266.199 17.8281 269.542 19.106 271.705 21.1992C273.866 23.2891 274.985 26.322 274.985 30.1094H276.985C276.985 25.928 275.741 22.3203 273.096 19.7618C270.455 17.2065 266.552 15.8281 261.493 15.8281V17.8281ZM274.985 30.1094C274.985 33.8769 273.866 36.9438 271.709 39.07C269.551 41.1964 266.228 42.5078 261.571 42.5078V44.5078C266.601 44.5078 270.485 43.0848 273.113 40.4944C275.741 37.9039 276.985 34.2716 276.985 30.1094H274.985ZM261.571 42.5078H250.086V44.5078H261.571V42.5078ZM306.593 83H305.593V84H306.593V83ZM357.804 83V84H358.804V83H357.804ZM357.804 69.0547H358.804V68.0547H357.804V69.0547ZM323.507 69.0547H322.507V70.0547H323.507V69.0547ZM323.507 3H324.507V2H323.507V3ZM306.593 3V2H305.593V3H306.593ZM306.593 84H357.804V82H306.593V84ZM358.804 83V69.0547H356.804V83H358.804ZM357.804 68.0547H323.507V70.0547H357.804V68.0547ZM324.507 69.0547V3H322.507V69.0547H324.507ZM323.507 2H306.593V4H323.507V2ZM305.593 3V83H307.593V3H305.593ZM371.205 83H370.205V84H371.205V83ZM425.268 83V84H426.268V83H425.268ZM425.268 69.0547H426.268V68.0547H425.268V69.0547ZM388.119 69.0547H387.119V70.0547H388.119V69.0547ZM388.119 49.9531V48.9531H387.119V49.9531H388.119ZM422.338 49.9531V50.9531H423.338V49.9531H422.338ZM422.338 36.0078H423.338V35.0078H422.338V36.0078ZM388.119 36.0078H387.119V37.0078H388.119V36.0078ZM388.119 16.9453V15.9453H387.119V16.9453H388.119ZM425.111 16.9453V17.9453H426.111V16.9453H425.111ZM425.111 3H426.111V2H425.111V3ZM371.205 3V2H370.205V3H371.205ZM371.205 84H425.268V82H371.205V84ZM426.268 83V69.0547H424.268V83H426.268ZM425.268 68.0547H388.119V70.0547H425.268V68.0547ZM389.119 69.0547V49.9531H387.119V69.0547H389.119ZM388.119 50.9531H422.338V48.9531H388.119V50.9531ZM423.338 49.9531V36.0078H421.338V49.9531H423.338ZM422.338 35.0078H388.119V37.0078H422.338V35.0078ZM389.119 36.0078V16.9453H387.119V36.0078H389.119ZM388.119 17.9453H425.111V15.9453H388.119V17.9453ZM426.111 16.9453V3H424.111V16.9453H426.111ZM425.111 2H371.205V4H425.111V2ZM370.205 3V83H372.205V3H370.205Z" fill="#EAEAEA"/>
</svg>
