<svg width="50" height="39" viewBox="0 0 50 39" fill="none" xmlns="http://www.w3.org/2000/svg">
<path d="M1.17472 38H0.174716V39H1.17472V38ZM17.0838 38V39H18.0838V38H17.0838ZM23.3977 7.375L24.2417 7.91141L24.796 7.03928L23.9061 6.51389L23.3977 7.375ZM14.0511 1.85653L14.5596 0.995424L13.9603 0.641615L13.4203 1.08059L14.0511 1.85653ZM26.2812 38H25.2812V39H26.2812V38ZM42.1903 38V39H43.1903V38H42.1903ZM48.5043 7.375L49.3482 7.91141L49.9025 7.03928L49.0127 6.51389L48.5043 7.375ZM39.1577 1.85653L39.6661 0.995424L39.0668 0.641615L38.5269 1.08059L39.1577 1.85653ZM1.17472 39H17.0838V37H1.17472V39ZM18.0838 38V27.1619H16.0838V38H18.0838ZM18.0838 27.1619C18.0838 19.6075 20.5764 13.6782 24.2417 7.91141L22.5538 6.83859C18.7617 12.8048 16.0838 19.1056 16.0838 27.1619H18.0838ZM23.9061 6.51389L14.5596 0.995424L13.5427 2.71764L22.8893 8.23611L23.9061 6.51389ZM13.4203 1.08059C9.84406 3.98791 6.54346 8.17757 4.13501 12.7911C1.72821 17.4015 0.174716 22.5078 0.174716 27.2614H2.17472C2.17472 22.9169 3.60418 18.1297 5.90796 13.7167C8.21009 9.30679 11.3477 5.34304 14.6819 2.63248L13.4203 1.08059ZM0.174716 27.2614V38H2.17472V27.2614H0.174716ZM26.2812 39H42.1903V37H26.2812V39ZM43.1903 38V27.1619H41.1903V38H43.1903ZM43.1903 27.1619C43.1903 19.6075 45.6829 13.6782 49.3482 7.91141L47.6603 6.83859C43.8683 12.8048 41.1903 19.1056 41.1903 27.1619H43.1903ZM49.0127 6.51389L39.6661 0.995424L38.6493 2.71764L47.9958 8.23611L49.0127 6.51389ZM38.5269 1.08059C34.9506 3.98791 31.65 8.17757 29.2415 12.7911C26.8347 17.4015 25.2812 22.5078 25.2812 27.2614H27.2812C27.2812 22.9169 28.7107 18.1297 31.0145 13.7167C33.3166 9.30679 36.4542 5.34304 39.7885 2.63248L38.5269 1.08059ZM25.2812 27.2614V38H27.2812V27.2614H25.2812Z" fill="#C4C4C4"/>
</svg>
