<?xml version="1.0" encoding="UTF-8" standalone="no"?>
<!DOCTYPE svg PUBLIC "-//W3C//DTD SVG 1.1//EN" "http://www.w3.org/Graphics/SVG/1.1/DTD/svg11.dtd">
<svg width="100%" height="100%" viewBox="0 0 257 256" version="1.1" xmlns="http://www.w3.org/2000/svg" xmlns:xlink="http://www.w3.org/1999/xlink" xml:space="preserve" xmlns:serif="http://www.serif.com/" style="fill-rule:evenodd;clip-rule:evenodd;stroke-linecap:round;stroke-linejoin:round;stroke-miterlimit:1.5;">
    <g transform="matrix(1,0,0,1,-928.566,-118.203)">
        <g id="Shovel-icon" serif:id="Shovel icon" transform="matrix(0.991513,0.130011,-0.130011,0.991513,47.2095,-87.0658)">
            <g transform="matrix(0.790914,0.611927,-0.611927,0.790914,346.712,-587.609)">
                <path d="M1020.47,263.135L1020.47,125.976L988.228,61.491L1078.23,61.491L1045.99,125.976L1045.99,263.135L1086.28,263.135L1085.61,301.717C1078.34,332.729 1056.84,353.742 1031.76,365.615C1001.91,347.54 984.159,326.695 980.486,301.717L980.179,299.328L980.176,299.296L980.179,299.296L980.179,263.135L1020.47,263.135Z" style="fill:none;stroke:rgb(255,0,0);stroke-width:3.44px;"/>
            </g>
            <g transform="matrix(-0.790914,-0.611927,0.611927,-0.790914,1876.56,813.328)">
                <path d="M1034.03,72.899L1046.84,93.225L1021.22,93.225L1034.03,72.899Z" style="fill:none;stroke:rgb(255,0,0);stroke-width:3.44px;"/>
            </g>
        </g>
    </g>
</svg>
