<?xml version="1.0" encoding="UTF-8" standalone="no"?>
<!DOCTYPE svg PUBLIC "-//W3C//DTD SVG 1.1//EN" "http://www.w3.org/Graphics/SVG/1.1/DTD/svg11.dtd">
<svg width="100%" height="100%" viewBox="0 0 131 116" version="1.1" xmlns="http://www.w3.org/2000/svg" xmlns:xlink="http://www.w3.org/1999/xlink" xml:space="preserve" xmlns:serif="http://www.serif.com/" style="fill-rule:evenodd;clip-rule:evenodd;stroke-linecap:round;stroke-linejoin:round;stroke-miterlimit:1.5;">
    <g transform="matrix(1,0,0,1,-310.707,-71.8986)">
        <g id="brick" transform="matrix(1,0,0,1,-238.974,-33.4204)">
            <g transform="matrix(1.1268,0,0,1,-74.2058,1)">
                <path d="M600.556,172.555L554.568,157.555L554.568,202.555L600.556,218.555L600.556,172.555Z" style="fill:none;stroke:rgb(255,0,0);stroke-width:1.88px;"/>
            </g>
            <g transform="matrix(1,0,0,1,32.5,-82.4452)">
                <path d="M646.455,207L570,256L570,302L645,254L646.455,207Z" style="fill:none;stroke:rgb(255,0,0);stroke-width:2px;"/>
            </g>
            <g transform="matrix(0.588942,-0.808175,0.808175,0.588942,101.031,519.837)">
                <path d="M644.234,181.912L556.797,150.621L575.193,201.334L659.74,234.325L644.234,181.912Z" style="fill:none;stroke:rgb(255,0,0);stroke-width:2px;"/>
            </g>
        </g>
    </g>
</svg>
