<svg width="511" height="86" viewBox="0 0 511 86" fill="none" xmlns="http://www.w3.org/2000/svg">
<path d="M1.95312 83H0.953125V84H1.95312V83ZM18.8672 83V84H19.8672V83H18.8672ZM18.8672 54.6406V53.6406H17.8672V54.6406H18.8672ZM31.2109 54.6406L32.0929 54.1693L31.8104 53.6406H31.2109V54.6406ZM46.3672 83L45.4852 83.4713L45.7678 84H46.3672V83ZM65.0391 83V84H66.7251L65.9166 82.5205L65.0391 83ZM48.0469 51.9062L47.6525 50.9873L46.6421 51.421L47.1694 52.3858L48.0469 51.9062ZM1.95312 3V2H0.953125V3H1.95312ZM18.8672 41.0469H17.8672V42.0469H18.8672V41.0469ZM18.8672 16.8281V15.8281H17.8672V16.8281H18.8672ZM1.95312 84H18.8672V82H1.95312V84ZM19.8672 83V54.6406H17.8672V83H19.8672ZM18.8672 55.6406H31.2109V53.6406H18.8672V55.6406ZM30.329 55.112L45.4852 83.4713L47.2491 82.5287L32.0929 54.1693L30.329 55.112ZM46.3672 84H65.0391V82H46.3672V84ZM65.9166 82.5205L48.9244 51.4267L47.1694 52.3858L64.1615 83.4795L65.9166 82.5205ZM48.4413 52.8252C57.9453 48.7462 63.1875 40.4306 63.1875 29.1328H61.1875C61.1875 39.71 56.3516 47.2538 47.6525 50.9873L48.4413 52.8252ZM63.1875 29.1328C63.1875 20.9557 60.4788 14.1383 55.3434 9.37157C50.2163 4.61248 42.7815 2 33.5156 2V4C42.4138 4 49.315 6.5047 53.9828 10.8374C58.6423 15.1624 61.1875 21.4115 61.1875 29.1328H63.1875ZM33.5156 2H1.95312V4H33.5156V2ZM0.953125 3V83H2.95312V3H0.953125ZM19.8672 41.0469V16.8281H17.8672V41.0469H19.8672ZM18.8672 17.8281H30.2734V15.8281H18.8672V17.8281ZM30.2734 17.8281C35.0288 17.8281 38.3767 18.8863 40.5271 20.7482C42.6512 22.5874 43.7656 25.3505 43.7656 29.1328H45.7656C45.7656 24.9464 44.5168 21.5572 41.8362 19.2362C39.1819 16.9379 35.2838 15.8281 30.2734 15.8281V17.8281ZM43.7656 29.1328C43.7656 32.8924 42.6538 35.5488 40.5525 37.2942C38.415 39.0697 35.0838 40.0469 30.3516 40.0469V42.0469C35.3068 42.0469 39.1827 41.0319 41.8304 38.8327C44.5142 36.6035 45.7656 33.3029 45.7656 29.1328H43.7656ZM30.3516 40.0469H18.8672V42.0469H30.3516V40.0469ZM76.3406 83H75.3406V84H76.3406V83ZM130.403 83V84H131.403V83H130.403ZM130.403 69.0547H131.403V68.0547H130.403V69.0547ZM93.2547 69.0547H92.2547V70.0547H93.2547V69.0547ZM93.2547 49.9531V48.9531H92.2547V49.9531H93.2547ZM127.473 49.9531V50.9531H128.473V49.9531H127.473ZM127.473 36.0078H128.473V35.0078H127.473V36.0078ZM93.2547 36.0078H92.2547V37.0078H93.2547V36.0078ZM93.2547 16.9453V15.9453H92.2547V16.9453H93.2547ZM130.247 16.9453V17.9453H131.247V16.9453H130.247ZM130.247 3H131.247V2H130.247V3ZM76.3406 3V2H75.3406V3H76.3406ZM76.3406 84H130.403V82H76.3406V84ZM131.403 83V69.0547H129.403V83H131.403ZM130.403 68.0547H93.2547V70.0547H130.403V68.0547ZM94.2547 69.0547V49.9531H92.2547V69.0547H94.2547ZM93.2547 50.9531H127.473V48.9531H93.2547V50.9531ZM128.473 49.9531V36.0078H126.473V49.9531H128.473ZM127.473 35.0078H93.2547V37.0078H127.473V35.0078ZM94.2547 36.0078V16.9453H92.2547V36.0078H94.2547ZM93.2547 17.9453H130.247V15.9453H93.2547V17.9453ZM131.247 16.9453V3H129.247V16.9453H131.247ZM130.247 2H76.3406V4H130.247V2ZM75.3406 3V83H77.3406V3H75.3406ZM160.347 3L161.3 2.69684L161.079 2H160.347V3ZM141.558 3V2H140.155L140.613 3.32632L141.558 3ZM169.175 83L168.23 83.3263L168.463 84H169.175V83ZM190.972 83V84H191.685L191.918 83.3259L190.972 83ZM218.55 3L219.496 3.3259L219.953 2H218.55V3ZM199.8 3V2H199.07L198.848 2.69629L199.8 3ZM180.425 63.7812V64.7812H181.156L181.378 64.085L180.425 63.7812ZM179.683 63.7812L178.73 64.0844L178.952 64.7812H179.683V63.7812ZM160.347 2H141.558V4H160.347V2ZM140.613 3.32632L168.23 83.3263L170.121 82.6737L142.503 2.67368L140.613 3.32632ZM169.175 84H190.972V82H169.175V84ZM191.918 83.3259L219.496 3.3259L217.605 2.67409L190.027 82.6741L191.918 83.3259ZM218.55 2H199.8V4H218.55V2ZM198.848 2.69629L179.473 63.4775L181.378 64.085L200.753 3.30371L198.848 2.69629ZM180.425 62.7812H179.683V64.7812H180.425V62.7812ZM180.636 63.4781L161.3 2.69684L159.394 3.30315L178.73 64.0844L180.636 63.4781ZM247.293 3H248.293V2H247.293V3ZM230.379 3V2H229.379V3H230.379ZM230.379 83H229.379V84H230.379V83ZM247.293 83V84H248.293V83H247.293ZM247.293 2H230.379V4H247.293V2ZM229.379 3V83H231.379V3H229.379ZM230.379 84H247.293V82H230.379V84ZM248.293 83V3H246.293V83H248.293ZM263.409 83H262.409V84H263.409V83ZM317.472 83V84H318.472V83H317.472ZM317.472 69.0547H318.472V68.0547H317.472V69.0547ZM280.323 69.0547H279.323V70.0547H280.323V69.0547ZM280.323 49.9531V48.9531H279.323V49.9531H280.323ZM314.542 49.9531V50.9531H315.542V49.9531H314.542ZM314.542 36.0078H315.542V35.0078H314.542V36.0078ZM280.323 36.0078H279.323V37.0078H280.323V36.0078ZM280.323 16.9453V15.9453H279.323V16.9453H280.323ZM317.316 16.9453V17.9453H318.316V16.9453H317.316ZM317.316 3H318.316V2H317.316V3ZM263.409 3V2H262.409V3H263.409ZM263.409 84H317.472V82H263.409V84ZM318.472 83V69.0547H316.472V83H318.472ZM317.472 68.0547H280.323V70.0547H317.472V68.0547ZM281.323 69.0547V49.9531H279.323V69.0547H281.323ZM280.323 50.9531H314.542V48.9531H280.323V50.9531ZM315.542 49.9531V36.0078H313.542V49.9531H315.542ZM314.542 35.0078H280.323V37.0078H314.542V35.0078ZM281.323 36.0078V16.9453H279.323V36.0078H281.323ZM280.323 17.9453H317.316V15.9453H280.323V17.9453ZM318.316 16.9453V3H316.316V16.9453H318.316ZM317.316 2H263.409V4H317.316V2ZM262.409 3V83H264.409V3H262.409ZM350.971 83L350.009 83.2751L350.217 84H350.971V83ZM367.455 83V84H368.206L368.415 83.279L367.455 83ZM382.65 30.6953V29.6953H381.9L381.69 30.4163L382.65 30.6953ZM383.275 30.6953L384.235 30.4157L384.026 29.6953H383.275V30.6953ZM398.51 83L397.55 83.2796L397.759 84H398.51V83ZM414.994 83V84H415.748L415.956 83.2751L414.994 83ZM437.885 3L438.846 3.27509L439.211 2H437.885V3ZM419.408 3V2H418.618L418.435 2.76872L419.408 3ZM406.166 58.7031V59.7031H406.956L407.139 58.9344L406.166 58.7031ZM405.463 58.7031L404.495 58.9562L404.691 59.7031H405.463V58.7031ZM390.893 3L391.86 2.74694L391.665 2H390.893V3ZM375.072 3V2H374.301L374.105 2.74581L375.072 3ZM360.463 58.5859V59.5859H361.234L361.43 58.8401L360.463 58.5859ZM359.799 58.5859L358.826 58.8177L359.009 59.5859H359.799V58.5859ZM346.557 3L347.529 2.76825L347.346 2H346.557V3ZM328.08 3V2H326.754L327.119 3.27509L328.08 3ZM350.971 84H367.455V82H350.971V84ZM368.415 83.279L383.611 30.9743L381.69 30.4163L366.495 82.721L368.415 83.279ZM382.65 31.6953H383.275V29.6953H382.65V31.6953ZM382.315 30.975L397.55 83.2796L399.47 82.7204L384.235 30.4157L382.315 30.975ZM398.51 84H414.994V82H398.51V84ZM415.956 83.2751L438.846 3.27509L436.923 2.7249L414.033 82.7249L415.956 83.2751ZM437.885 2H419.408V4H437.885V2ZM418.435 2.76872L405.193 58.4718L407.139 58.9344L420.381 3.23128L418.435 2.76872ZM406.166 57.7031H405.463V59.7031H406.166V57.7031ZM406.43 58.4501L391.86 2.74694L389.925 3.25305L404.495 58.9562L406.43 58.4501ZM390.893 2H375.072V4H390.893V2ZM374.105 2.74581L359.496 58.3317L361.43 58.8401L376.039 3.25419L374.105 2.74581ZM360.463 57.5859H359.799V59.5859H360.463V57.5859ZM360.772 58.3542L347.529 2.76825L345.584 3.23174L358.826 58.8177L360.772 58.3542ZM346.557 2H328.08V4H346.557V2ZM327.119 3.27509L350.009 83.2751L351.932 82.7249L329.041 2.7249L327.119 3.27509ZM492.536 26.0078L491.541 26.1067L491.63 27.0078H492.536V26.0078ZM508.747 26.0078V27.0078H509.763L509.747 25.9914L508.747 26.0078ZM448.669 26.125L449.669 26.1283L449.669 26.1196L448.669 26.125ZM470.466 47.9219L470.709 46.9519L470.699 46.9495L470.466 47.9219ZM479.177 50.1094L478.933 51.0793L478.941 51.0813L479.177 50.1094ZM492.77 60.1094L493.77 60.116L493.77 60.1021L492.77 60.1094ZM462.927 57.8828L463.924 57.8147L463.861 56.8828H462.927V57.8828ZM446.559 57.8828V56.8828H445.534L445.56 57.9076L446.559 57.8828ZM509.841 60.1484L510.841 60.1511L510.841 60.1455L509.841 60.1484ZM485.856 36.6328L485.624 37.6055L485.637 37.6085L485.856 36.6328ZM478.669 34.9141L478.901 33.9414L478.893 33.9396L478.669 34.9141ZM466.013 24.9922L467.012 25.0126L467.013 25.0024V24.9922H466.013ZM492.536 27.0078H508.747V25.0078H492.536V27.0078ZM509.747 25.9914C509.625 18.5712 506.505 12.2677 501.089 7.83642C495.688 3.41693 488.066 0.906247 478.981 0.906247V2.90625C487.709 2.90625 494.853 5.31744 499.823 9.38427C504.778 13.4393 507.635 19.1866 507.747 26.0242L509.747 25.9914ZM478.981 0.906247C470.036 0.906247 462.207 3.37602 456.601 7.78001C450.976 12.1982 447.628 18.5388 447.669 26.1304L449.669 26.1196C449.631 19.18 452.67 13.4112 457.836 9.3528C463.021 5.28023 470.387 2.90625 478.981 2.90625V0.906247ZM447.669 26.1217C447.648 32.2867 449.825 37.1921 453.796 40.9571C457.736 44.6928 463.383 47.2512 470.232 48.8943L470.699 46.9495C464.033 45.3504 458.761 42.9087 455.172 39.5058C451.614 36.1322 449.65 31.7601 449.669 26.1283L447.669 26.1217ZM470.222 48.8918L478.933 51.0793L479.42 49.1395L470.709 46.952L470.222 48.8918ZM478.941 51.0813C483.282 52.1325 486.519 53.2521 488.664 54.7066C490.742 56.1152 491.754 57.8015 491.77 60.1166L493.77 60.1021C493.748 57.0266 492.318 54.7676 489.787 53.0512C487.323 51.3807 483.782 50.1956 479.412 49.1375L478.941 51.0813ZM491.77 60.1027C491.753 62.6785 490.541 64.8489 488.314 66.4097C486.063 67.9882 482.746 68.9531 478.591 68.9531V70.9531C483.029 70.9531 486.783 69.9259 489.462 68.0474C492.168 66.1511 493.748 63.3997 493.77 60.116L491.77 60.1027ZM478.591 68.9531C474.337 68.9531 470.787 67.9686 468.259 66.1146C465.761 64.2818 464.179 61.5412 463.924 57.8147L461.929 57.9509C462.221 62.2322 464.077 65.5268 467.076 67.7272C470.047 69.9064 474.055 70.9531 478.591 70.9531V68.9531ZM462.927 56.8828H446.559V58.8828H462.927V56.8828ZM445.56 57.9076C445.781 66.8152 449.093 73.6739 454.934 78.2821C460.744 82.8663 468.941 85.1328 478.786 85.1328V83.1328C469.217 83.1328 461.515 80.9266 456.173 76.712C450.861 72.5214 447.768 66.2551 447.559 57.858L445.56 57.9076ZM478.786 85.1328C488.698 85.1328 496.694 82.7651 502.24 78.421C507.813 74.0553 510.82 67.7623 510.841 60.1511L508.841 60.1458C508.822 67.183 506.067 72.8822 501.006 76.8465C495.917 80.8326 488.405 83.1328 478.786 83.1328V85.1328ZM510.841 60.1455C510.82 53.1993 508.178 47.8336 503.717 43.8237C499.289 39.8429 493.119 37.24 486.076 35.6571L485.637 37.6085C492.5 39.1506 498.302 41.6454 502.38 45.3111C506.425 48.9476 508.822 53.7773 508.841 60.1514L510.841 60.1455ZM486.089 35.6602L478.901 33.9415L478.436 35.8866L485.624 37.6054L486.089 35.6602ZM478.893 33.9396C475.445 33.1453 472.401 32.1329 470.25 30.6776C468.144 29.2532 466.962 27.4613 467.012 25.0126L465.013 24.9718C464.946 28.2653 466.615 30.6335 469.129 32.3341C471.597 34.0038 474.94 35.0813 478.444 35.8885L478.893 33.9396ZM467.013 24.9922C467.013 22.7434 467.994 20.8029 469.923 19.3933C471.879 17.9639 474.862 17.0469 478.864 17.0469V15.0469C474.584 15.0469 471.143 16.0244 468.743 17.7786C466.316 19.5526 465.013 22.0848 465.013 24.9922H467.013ZM478.864 17.0469C482.767 17.0469 485.8 17.934 487.907 19.476C489.991 21.0004 491.254 23.2243 491.541 26.1067L493.531 25.9089C493.193 22.5023 491.663 19.7457 489.088 17.8619C486.538 15.9957 483.047 15.0469 478.864 15.0469V17.0469Z" fill="#EFEFEF"/>
</svg>
