<svg width="422" height="86" viewBox="0 0 422 86" fill="none" xmlns="http://www.w3.org/2000/svg">
<path d="M47.3516 26.0078L46.3565 26.1067L46.446 27.0078H47.3516V26.0078ZM63.5625 26.0078V27.0078H64.5791L64.5624 25.9914L63.5625 26.0078ZM3.48438 26.125L4.48441 26.1283L4.48436 26.1196L3.48438 26.125ZM25.2813 47.9219L25.5248 46.9519L25.5145 46.9495L25.2813 47.9219ZM33.9922 50.1094L33.7486 51.0793L33.7568 51.0813L33.9922 50.1094ZM47.5859 60.1094L48.586 60.116L48.5859 60.1021L47.5859 60.1094ZM17.7422 57.8828L18.7399 57.8147L18.6762 56.8828H17.7422V57.8828ZM1.375 57.8828V56.8828H0.349861L0.375308 57.9076L1.375 57.8828ZM64.6562 60.1484L65.6563 60.1511L65.6562 60.1455L64.6562 60.1484ZM40.6719 36.6328L40.4393 37.6055L40.4526 37.6085L40.6719 36.6328ZM33.4844 34.9141L33.717 33.9414L33.7088 33.9396L33.4844 34.9141ZM20.8281 24.9922L21.8279 25.0126L21.8281 25.0024V24.9922H20.8281ZM47.3516 27.0078H63.5625V25.0078H47.3516V27.0078ZM64.5624 25.9914C64.4404 18.5712 61.3202 12.2677 55.9048 7.83642C50.5037 3.41693 42.8814 0.906247 33.7969 0.906247V2.90625C42.5248 2.90625 49.6682 5.31744 54.6382 9.38427C59.5939 13.4393 62.4502 19.1866 62.5626 26.0242L64.5624 25.9914ZM33.7969 0.906247C24.852 0.906247 17.0229 3.37602 11.4165 7.78001C5.79195 12.1982 2.44357 18.5388 2.48439 26.1304L4.48436 26.1196C4.44705 19.18 7.4854 13.4112 12.6519 9.3528C17.8365 5.28023 25.2027 2.90625 33.7969 2.90625V0.906247ZM2.48438 26.1217C2.46397 32.2867 4.64069 37.1921 8.61177 40.9571C12.5519 44.6928 18.1984 47.2512 25.048 48.8943L25.5145 46.9495C18.8485 45.3504 13.577 42.9087 9.98784 39.5058C6.42962 36.1322 4.46572 31.7601 4.48437 26.1283L2.48438 26.1217ZM25.0377 48.8918L33.7486 51.0793L34.2357 49.1395L25.5248 46.952L25.0377 48.8918ZM33.7568 51.0813C38.0979 52.1325 41.3344 53.2521 43.4799 54.7066C45.5575 56.1152 46.5692 57.8015 46.586 60.1166L48.5859 60.1021C48.5636 57.0266 47.1339 54.7676 44.6022 53.0512C42.1382 51.3807 38.5974 50.1956 34.2275 49.1375L33.7568 51.0813ZM46.586 60.1027C46.5688 62.6785 45.3566 64.8489 43.1301 66.4097C40.8783 67.9882 37.5618 68.9531 33.4062 68.9531V70.9531C37.8444 70.9531 41.5983 69.9259 44.2781 68.0474C46.9833 66.1511 48.564 63.3997 48.5859 60.116L46.586 60.1027ZM33.4062 68.9531C29.1526 68.9531 25.6023 67.9686 23.0749 66.1146C20.5764 64.2818 18.9944 61.5412 18.7399 57.8147L16.7445 57.9509C17.0369 62.2322 18.8923 65.5268 21.8919 67.7272C24.8626 69.9064 28.8709 70.9531 33.4062 70.9531V68.9531ZM17.7422 56.8828H1.375V58.8828H17.7422V56.8828ZM0.375308 57.9076C0.59649 66.8152 3.90887 73.6739 9.74974 78.2821C15.5601 82.8663 23.7564 85.1328 33.6016 85.1328V83.1328C24.0326 83.1328 16.3305 80.9266 10.9885 76.712C5.67706 72.5214 2.5832 66.2551 2.37469 57.858L0.375308 57.9076ZM33.6016 85.1328C43.5133 85.1328 51.5092 82.7651 57.0551 78.421C62.6287 74.0553 65.636 67.7623 65.6562 60.1511L63.6563 60.1458C63.6375 67.183 60.883 72.8822 55.8218 76.8465C50.733 80.8326 43.2211 83.1328 33.6016 83.1328V85.1328ZM65.6562 60.1455C65.6359 53.1993 62.9934 47.8336 58.5328 43.8237C54.1046 39.8429 47.9347 37.24 40.8911 35.6571L40.4526 37.6085C47.3153 39.1506 53.1181 41.6454 57.1957 45.3111C61.241 48.9476 63.6376 53.7773 63.6563 60.1514L65.6562 60.1455ZM40.9045 35.6602L33.717 33.9415L33.2518 35.8866L40.4393 37.6054L40.9045 35.6602ZM33.7088 33.9396C30.2605 33.1453 27.2164 32.1329 25.0652 30.6776C22.9598 29.2532 21.7779 27.4613 21.8279 25.0126L19.8283 24.9718C19.7611 28.2653 21.4308 30.6335 23.9445 32.3341C26.4125 34.0038 29.7552 35.0813 33.2599 35.8885L33.7088 33.9396ZM21.8281 24.9922C21.8281 22.7434 22.8101 20.8029 24.7385 19.3933C26.6941 17.9639 29.6781 17.0469 33.6797 17.0469V15.0469C29.4001 15.0469 25.9582 16.0244 23.5583 17.7786C21.1313 19.5526 19.8281 22.0848 19.8281 24.9922H21.8281ZM33.6797 17.0469C37.5824 17.0469 40.6155 17.934 42.723 19.476C44.8064 21.0004 46.07 23.2243 46.3565 26.1067L48.3467 25.9089C48.0081 22.5023 46.4787 19.7457 43.904 17.8619C41.3533 15.9957 37.8629 15.0469 33.6797 15.0469V17.0469ZM152.749 43C152.749 29.704 148.617 19.1666 141.694 11.9466C134.771 4.72583 125.134 0.906247 114.288 0.906247V2.90625C124.653 2.90625 133.747 6.5476 140.251 13.3308C146.755 20.1146 150.749 30.1241 150.749 43H152.749ZM114.288 0.906247C103.385 0.906247 93.7468 4.72515 86.8368 11.9474C79.928 19.1684 75.827 29.706 75.827 43H77.827C77.827 30.1221 81.7923 20.1129 88.2819 13.33C94.7704 6.54828 103.863 2.90625 114.288 2.90625V0.906247ZM75.827 43C75.827 56.2364 79.9286 66.7732 86.8361 74.0079C93.7449 81.2441 103.382 85.0937 114.288 85.0937V83.0937C103.865 83.0937 94.7723 79.4239 88.2826 72.6268C81.7917 65.8284 77.827 55.8183 77.827 43H75.827ZM114.288 85.0937C125.134 85.0937 134.771 81.2742 141.694 74.0534C148.617 66.8334 152.749 56.296 152.749 43H150.749C150.749 55.8759 146.755 65.8854 140.251 72.6692C133.747 79.4524 124.653 83.0937 114.288 83.0937V85.0937ZM133.6 43C133.6 51.332 131.622 57.6166 128.264 61.7977C124.928 65.9518 120.149 68.1328 114.288 68.1328V70.1328C120.692 70.1328 126.07 67.724 129.823 63.05C133.556 58.4029 135.6 51.6211 135.6 43H133.6ZM114.288 68.1328C108.406 68.1328 103.628 65.9513 100.297 61.7982C96.9447 57.6176 94.9754 51.3331 94.9754 43H92.9754C92.9754 51.6201 95.01 58.402 98.7373 63.0495C102.487 67.7245 107.865 70.1328 114.288 70.1328V68.1328ZM94.9754 43C94.9754 34.6669 96.9447 28.3824 100.297 24.2018C103.628 20.0487 108.406 17.8672 114.288 17.8672V15.8672C107.865 15.8672 102.487 18.2755 98.7373 22.9505C95.01 27.598 92.9754 34.3799 92.9754 43H94.9754ZM114.288 17.8672C120.149 17.8672 124.928 20.0482 128.264 24.2023C131.622 28.3834 133.6 34.668 133.6 43H135.6C135.6 34.3789 133.556 27.5971 129.823 22.95C126.07 18.276 120.692 15.8672 114.288 15.8672V17.8672ZM237.064 31.0078V32.0078H238.192L238.057 30.8882L237.064 31.0078ZM237.064 55.7344L238.056 55.8581L238.196 54.7395L237.069 54.7344L237.064 55.7344ZM219.955 55.6562L219.959 54.6563L219.125 54.6525L218.972 55.4722L219.955 55.6562ZM219.955 31.0078L218.965 31.1529L219.091 32.0078H219.955V31.0078ZM238.057 30.8882C236.915 21.4135 232.746 13.8953 226.441 8.75337C220.145 3.61828 211.785 0.906247 202.337 0.906247V2.90625C211.406 2.90625 219.296 5.50672 225.177 10.3033C231.05 15.093 234.986 22.1256 236.071 31.1275L238.057 30.8882ZM202.337 0.906247C191.529 0.906247 181.941 4.72681 175.056 11.9487C168.173 19.1692 164.072 29.706 164.072 43H166.072C166.072 30.1221 170.037 20.112 176.504 13.3287C182.969 6.54662 192.013 2.90625 202.337 2.90625V0.906247ZM164.072 43C164.072 56.2509 168.102 66.7877 174.951 74.0197C181.803 81.2543 191.394 85.0937 202.337 85.0937V83.0937C191.875 83.0937 182.833 79.4332 176.403 72.6444C169.971 65.8529 166.072 55.8429 166.072 43H164.072ZM202.337 85.0937C223.358 85.0937 236.159 71.077 238.056 55.8581L236.072 55.6107C234.297 69.8449 222.333 83.0937 202.337 83.0937V85.0937ZM237.069 54.7344L219.959 54.6563L219.95 56.6562L237.059 56.7344L237.069 54.7344ZM218.972 55.4722C218.213 59.5242 216.256 62.6689 213.459 64.8081C210.654 66.9529 206.942 68.1328 202.611 68.1328V70.1328C207.304 70.1328 211.463 68.8518 214.673 66.3969C217.891 63.9366 220.095 60.343 220.938 55.8403L218.972 55.4722ZM202.611 68.1328C196.804 68.1328 192.005 65.9878 188.635 61.8509C185.246 57.6895 183.22 51.4068 183.22 43H181.22C181.22 51.7026 183.316 58.4863 187.085 63.1139C190.874 67.7661 196.269 70.1328 202.611 70.1328V68.1328ZM183.22 43C183.22 34.8303 185.216 28.5433 188.61 24.3198C191.985 20.1213 196.815 17.8672 202.728 17.8672V15.8672C196.258 15.8672 190.835 18.3592 187.051 23.0669C183.288 27.7497 181.22 34.5291 181.22 43H183.22ZM202.728 17.8672C207.163 17.8672 210.914 19.1472 213.698 21.4166C216.476 23.682 218.354 26.9841 218.965 31.1529L220.944 30.8627C220.266 26.2424 218.16 22.4743 214.962 19.8666C211.768 17.2629 207.551 15.8672 202.728 15.8672V17.8672ZM219.955 32.0078H237.064V30.0078H219.955V32.0078ZM268.307 3H269.307V2H268.307V3ZM251.393 3V2H250.393V3H251.393ZM251.393 83H250.393V84H251.393V83ZM268.307 83V84H269.307V83H268.307ZM268.307 2H251.393V4H268.307V2ZM250.393 3V83H252.393V3H250.393ZM251.393 84H268.307V82H251.393V84ZM269.307 83V3H267.307V83H269.307ZM298.212 83V84H298.938L299.163 83.3095L298.212 83ZM304.15 64.7578V63.7578H303.423L303.199 64.4483L304.15 64.7578ZM333.017 64.7578L333.968 64.4483L333.743 63.7578H333.017V64.7578ZM338.954 83L338.003 83.3095L338.228 84H338.954V83ZM357.079 83V84H358.482L358.025 82.6741L357.079 83ZM329.501 3L330.447 2.67409L330.214 2H329.501V3ZM307.704 3V2H306.992L306.759 2.67368L307.704 3ZM280.087 83L279.142 82.6737L278.684 84H280.087V83ZM308.446 51.5547L307.495 51.2455L307.07 52.5547H308.446V51.5547ZM318.29 21.2812V20.2812H317.564L317.339 20.972L318.29 21.2812ZM318.915 21.2812L319.866 20.972L319.642 20.2812H318.915V21.2812ZM328.759 51.5547V52.5547H330.136L329.71 51.2455L328.759 51.5547ZM299.163 83.3095L305.1 65.0673L303.199 64.4483L297.261 82.6905L299.163 83.3095ZM304.15 65.7578H333.017V63.7578H304.15V65.7578ZM332.066 65.0673L338.003 83.3095L339.905 82.6905L333.968 64.4483L332.066 65.0673ZM338.954 84H357.079V82H338.954V84ZM358.025 82.6741L330.447 2.67409L328.556 3.3259L356.134 83.3259L358.025 82.6741ZM329.501 2H307.704V4H329.501V2ZM306.759 2.67368L279.142 82.6737L281.032 83.3263L308.65 3.32632L306.759 2.67368ZM280.087 84H298.212V82H280.087V84ZM309.397 51.8639L319.241 21.5905L317.339 20.972L307.495 51.2455L309.397 51.8639ZM318.29 22.2812H318.915V20.2812H318.29V22.2812ZM317.964 21.5905L327.808 51.8639L329.71 51.2455L319.866 20.972L317.964 21.5905ZM328.759 50.5547H308.446V52.5547H328.759V50.5547ZM368.908 83H367.908V84H368.908V83ZM420.119 83V84H421.119V83H420.119ZM420.119 69.0547H421.119V68.0547H420.119V69.0547ZM385.822 69.0547H384.822V70.0547H385.822V69.0547ZM385.822 3H386.822V2H385.822V3ZM368.908 3V2H367.908V3H368.908ZM368.908 84H420.119V82H368.908V84ZM421.119 83V69.0547H419.119V83H421.119ZM420.119 68.0547H385.822V70.0547H420.119V68.0547ZM386.822 69.0547V3H384.822V69.0547H386.822ZM385.822 2H368.908V4H385.822V2ZM367.908 3V83H369.908V3H367.908Z" fill="#EFEFEF"/>
</svg>
