<svg width="790" height="86" viewBox="0 0 790 86" fill="none" xmlns="http://www.w3.org/2000/svg">
<path d="M-38.0938 16.9453H-39.0938V17.9453H-38.0938V16.9453ZM-13.6016 16.9453H-12.6016V15.9453H-13.6016V16.9453ZM-13.6016 83H-14.6016V84H-13.6016V83ZM3.11719 83V84H4.11719V83H3.11719ZM3.11719 16.9453V15.9453H2.11719V16.9453H3.11719ZM27.6094 16.9453V17.9453H28.6094V16.9453H27.6094ZM27.6094 3H28.6094V2H27.6094V3ZM-38.0938 3V2H-39.0938V3H-38.0938ZM-38.0938 17.9453H-13.6016V15.9453H-38.0938V17.9453ZM-14.6016 16.9453V83H-12.6016V16.9453H-14.6016ZM-13.6016 84H3.11719V82H-13.6016V84ZM4.11719 83V16.9453H2.11719V83H4.11719ZM3.11719 17.9453H27.6094V15.9453H3.11719V17.9453ZM28.6094 16.9453V3H26.6094V16.9453H28.6094ZM27.6094 2H-38.0938V4H27.6094V2ZM-39.0938 3V16.9453H-37.0938V3H-39.0938ZM40.6297 83H39.6297V84H40.6297V83ZM57.5437 83V84H58.5437V83H57.5437ZM57.5437 54.6406V53.6406H56.5437V54.6406H57.5437ZM69.8875 54.6406L70.7694 54.1693L70.4869 53.6406H69.8875V54.6406ZM85.0437 83L84.1618 83.4713L84.4443 84H85.0437V83ZM103.716 83V84H105.402L104.593 82.5205L103.716 83ZM86.7234 51.9062L86.329 50.9873L85.3187 51.421L85.8459 52.3858L86.7234 51.9062ZM40.6297 3V2H39.6297V3H40.6297ZM57.5437 41.0469H56.5437V42.0469H57.5437V41.0469ZM57.5437 16.8281V15.8281H56.5437V16.8281H57.5437ZM40.6297 84H57.5437V82H40.6297V84ZM58.5437 83V54.6406H56.5437V83H58.5437ZM57.5437 55.6406H69.8875V53.6406H57.5437V55.6406ZM69.0055 55.112L84.1618 83.4713L85.9257 82.5287L70.7694 54.1693L69.0055 55.112ZM85.0437 84H103.716V82H85.0437V84ZM104.593 82.5205L87.601 51.4267L85.8459 52.3858L102.838 83.4795L104.593 82.5205ZM87.1178 52.8252C96.6219 48.7462 101.864 40.4306 101.864 29.1328H99.8641C99.8641 39.71 95.0281 47.2538 86.329 50.9873L87.1178 52.8252ZM101.864 29.1328C101.864 20.9557 99.1554 14.1383 94.02 9.37157C88.8928 4.61248 81.4581 2 72.1922 2V4C81.0904 4 87.9915 6.5047 92.6593 10.8374C97.3188 15.1624 99.8641 21.4115 99.8641 29.1328H101.864ZM72.1922 2H40.6297V4H72.1922V2ZM39.6297 3V83H41.6297V3H39.6297ZM58.5437 41.0469V16.8281H56.5437V41.0469H58.5437ZM57.5437 17.8281H68.95V15.8281H57.5437V17.8281ZM68.95 17.8281C73.7053 17.8281 77.0533 18.8863 79.2036 20.7482C81.3277 22.5874 82.4422 25.3505 82.4422 29.1328H84.4422C84.4422 24.9464 83.1934 21.5572 80.5128 19.2362C77.8584 16.9379 73.9603 15.8281 68.95 15.8281V17.8281ZM82.4422 29.1328C82.4422 32.8924 81.3304 35.5488 79.229 37.2942C77.0915 39.0697 73.7604 40.0469 69.0281 40.0469V42.0469C73.9834 42.0469 77.8593 41.0319 80.5069 38.8327C83.1907 36.6035 84.4422 33.3029 84.4422 29.1328H82.4422ZM69.0281 40.0469H57.5437V42.0469H69.0281V40.0469ZM128.806 83V84H129.532L129.757 83.3095L128.806 83ZM134.744 64.7578V63.7578H134.018L133.793 64.4483L134.744 64.7578ZM163.611 64.7578L164.562 64.4483L164.337 63.7578H163.611V64.7578ZM169.548 83L168.598 83.3095L168.822 84H169.548V83ZM187.673 83V84H189.076L188.619 82.6741L187.673 83ZM160.095 3L161.041 2.67409L160.808 2H160.095V3ZM138.298 3V2H137.586L137.353 2.67368L138.298 3ZM110.681 83L109.736 82.6737L109.278 84H110.681V83ZM139.041 51.5547L138.09 51.2455L137.664 52.5547H139.041V51.5547ZM148.884 21.2812V20.2812H148.158L147.933 20.972L148.884 21.2812ZM149.509 21.2812L150.46 20.972L150.236 20.2812H149.509V21.2812ZM159.353 51.5547V52.5547H160.73L160.304 51.2455L159.353 51.5547ZM129.757 83.3095L135.695 65.0673L133.793 64.4483L127.855 82.6905L129.757 83.3095ZM134.744 65.7578H163.611V63.7578H134.744V65.7578ZM162.66 65.0673L168.598 83.3095L170.499 82.6905L164.562 64.4483L162.66 65.0673ZM169.548 84H187.673V82H169.548V84ZM188.619 82.6741L161.041 2.67409L159.15 3.3259L186.728 83.3259L188.619 82.6741ZM160.095 2H138.298V4H160.095V2ZM137.353 2.67368L109.736 82.6737L111.627 83.3263L139.244 3.32632L137.353 2.67368ZM110.681 84H128.806V82H110.681V84ZM139.992 51.8639L149.835 21.5905L147.933 20.972L138.09 51.2455L139.992 51.8639ZM148.884 22.2812H149.509V20.2812H148.884V22.2812ZM148.558 21.5905L158.402 51.8639L160.304 51.2455L150.46 20.972L148.558 21.5905ZM159.353 50.5547H139.041V52.5547H159.353V50.5547ZM266.416 3H267.416V2H266.416V3ZM249.58 3V2H248.58V3H249.58ZM249.58 53.3125V54.3125H250.58V53.3125H249.58ZM248.877 53.3125L248.053 53.8784L248.351 54.3125H248.877V53.3125ZM214.346 3L215.171 2.43412L214.873 2H214.346V3ZM199.502 3V2H198.502V3H199.502ZM199.502 83H198.502V84H199.502V83ZM216.416 83V84H217.416V83H216.416ZM216.416 32.6484V31.6484H215.416V32.6484H216.416ZM217.002 32.6484L217.825 32.0798L217.527 31.6484H217.002V32.6484ZM251.807 83L250.984 83.5686L251.283 84H251.807V83ZM266.416 83V84H267.416V83H266.416ZM266.416 2H249.58V4H266.416V2ZM248.58 3V53.3125H250.58V3H248.58ZM249.58 52.3125H248.877V54.3125H249.58V52.3125ZM249.702 52.7466L215.171 2.43412L213.522 3.56587L248.053 53.8784L249.702 52.7466ZM214.346 2H199.502V4H214.346V2ZM198.502 3V83H200.502V3H198.502ZM199.502 84H216.416V82H199.502V84ZM217.416 83V32.6484H215.416V83H217.416ZM216.416 33.6484H217.002V31.6484H216.416V33.6484ZM216.18 33.217L250.984 83.5686L252.63 82.4314L217.825 32.0798L216.18 33.217ZM251.807 84H266.416V82H251.807V84ZM267.416 83V3H265.416V83H267.416ZM325.989 26.0078L324.994 26.1067L325.084 27.0078H325.989V26.0078ZM342.2 26.0078V27.0078H343.217L343.2 25.9914L342.2 26.0078ZM282.122 26.125L283.122 26.1283L283.122 26.1196L282.122 26.125ZM303.919 47.9219L304.163 46.9519L304.152 46.9495L303.919 47.9219ZM312.63 50.1094L312.386 51.0793L312.395 51.0813L312.63 50.1094ZM326.224 60.1094L327.224 60.116L327.224 60.1021L326.224 60.1094ZM296.38 57.8828L297.378 57.8147L297.314 56.8828H296.38V57.8828ZM280.013 57.8828V56.8828H278.988L279.013 57.9076L280.013 57.8828ZM343.294 60.1484L344.294 60.1511L344.294 60.1455L343.294 60.1484ZM319.31 36.6328L319.077 37.6055L319.091 37.6085L319.31 36.6328ZM312.122 34.9141L312.355 33.9414L312.347 33.9396L312.122 34.9141ZM299.466 24.9922L300.466 25.0126L300.466 25.0024V24.9922H299.466ZM325.989 27.0078H342.2V25.0078H325.989V27.0078ZM343.2 25.9914C343.078 18.5712 339.958 12.2677 334.543 7.83642C329.142 3.41693 321.519 0.906247 312.435 0.906247V2.90625C321.163 2.90625 328.306 5.31744 333.276 9.38427C338.232 13.4393 341.088 19.1866 341.201 26.0242L343.2 25.9914ZM312.435 0.906247C303.49 0.906247 295.661 3.37602 290.054 7.78001C284.43 12.1982 281.081 18.5388 281.122 26.1304L283.122 26.1196C283.085 19.18 286.123 13.4112 291.29 9.3528C296.474 5.28023 303.841 2.90625 312.435 2.90625V0.906247ZM281.122 26.1217C281.102 32.2867 283.279 37.1921 287.25 40.9571C291.19 44.6928 296.836 47.2512 303.686 48.8943L304.152 46.9495C297.486 45.3504 292.215 42.9087 288.626 39.5058C285.068 36.1322 283.104 31.7601 283.122 26.1283L281.122 26.1217ZM303.676 48.8918L312.387 51.0793L312.874 49.1395L304.163 46.952L303.676 48.8918ZM312.395 51.0813C316.736 52.1325 319.972 53.2521 322.118 54.7066C324.195 56.1152 325.207 57.8015 325.224 60.1166L327.224 60.1021C327.202 57.0266 325.772 54.7676 323.24 53.0512C320.776 51.3807 317.235 50.1956 312.865 49.1375L312.395 51.0813ZM325.224 60.1027C325.207 62.6785 323.994 64.8489 321.768 66.4097C319.516 67.9882 316.2 68.9531 312.044 68.9531V70.9531C316.482 70.9531 320.236 69.9259 322.916 68.0474C325.621 66.1511 327.202 63.3997 327.224 60.116L325.224 60.1027ZM312.044 68.9531C307.79 68.9531 304.24 67.9686 301.713 66.1146C299.214 64.2818 297.632 61.5412 297.378 57.8147L295.382 57.9509C295.675 62.2322 297.53 65.5268 300.53 67.7272C303.5 69.9064 307.509 70.9531 312.044 70.9531V68.9531ZM296.38 56.8828H280.013V58.8828H296.38V56.8828ZM279.013 57.9076C279.234 66.8152 282.547 73.6739 288.388 78.2821C294.198 82.8663 302.394 85.1328 312.239 85.1328V83.1328C302.671 83.1328 294.968 80.9266 289.626 76.712C284.315 72.5214 281.221 66.2551 281.013 57.858L279.013 57.9076ZM312.239 85.1328C322.151 85.1328 330.147 82.7651 335.693 78.421C341.267 74.0553 344.274 67.7623 344.294 60.1511L342.294 60.1458C342.275 67.183 339.521 72.8822 334.46 76.8465C329.371 80.8326 321.859 83.1328 312.239 83.1328V85.1328ZM344.294 60.1455C344.274 53.1993 341.631 47.8336 337.171 43.8237C332.742 39.8429 326.573 37.24 319.529 35.6571L319.091 37.6085C325.953 39.1506 331.756 41.6454 335.834 45.3111C339.879 48.9476 342.275 53.7773 342.294 60.1514L344.294 60.1455ZM319.542 35.6602L312.355 33.9415L311.89 35.8866L319.077 37.6054L319.542 35.6602ZM312.347 33.9396C308.898 33.1453 305.854 32.1329 303.703 30.6776C301.598 29.2532 300.416 27.4613 300.466 25.0126L298.466 24.9718C298.399 28.2653 300.069 30.6335 302.582 32.3341C305.05 34.0038 308.393 35.0813 311.898 35.8885L312.347 33.9396ZM300.466 24.9922C300.466 22.7434 301.448 20.8029 303.376 19.3933C305.332 17.9639 308.316 17.0469 312.318 17.0469V15.0469C308.038 15.0469 304.596 16.0244 302.196 17.7786C299.769 19.5526 298.466 22.0848 298.466 24.9922H300.466ZM312.318 17.0469C316.22 17.0469 319.253 17.934 321.361 19.476C323.444 21.0004 324.708 23.2243 324.994 26.1067L326.985 25.9089C326.646 22.5023 325.117 19.7457 322.542 17.8619C319.991 15.9957 316.501 15.0469 312.318 15.0469V17.0469ZM356.871 83H355.871V84H356.871V83ZM373.785 83V84H374.785V83H373.785ZM373.785 49.9531V48.9531H372.785V49.9531H373.785ZM406.324 49.9531V50.9531H407.324V49.9531H406.324ZM406.324 36.0078H407.324V35.0078H406.324V36.0078ZM373.785 36.0078H372.785V37.0078H373.785V36.0078ZM373.785 16.9453V15.9453H372.785V16.9453H373.785ZM409.84 16.9453V17.9453H410.84V16.9453H409.84ZM409.84 3H410.84V2H409.84V3ZM356.871 3V2H355.871V3H356.871ZM356.871 84H373.785V82H356.871V84ZM374.785 83V49.9531H372.785V83H374.785ZM373.785 50.9531H406.324V48.9531H373.785V50.9531ZM407.324 49.9531V36.0078H405.324V49.9531H407.324ZM406.324 35.0078H373.785V37.0078H406.324V35.0078ZM374.785 36.0078V16.9453H372.785V36.0078H374.785ZM373.785 17.9453H409.84V15.9453H373.785V17.9453ZM410.84 16.9453V3H408.84V16.9453H410.84ZM409.84 2H356.871V4H409.84V2ZM355.871 3V83H357.871V3H355.871ZM497.932 43C497.932 29.704 493.801 19.1666 486.878 11.9466C479.954 4.72583 470.317 0.906247 459.471 0.906247V2.90625C469.837 2.90625 478.93 6.5476 485.434 13.3308C491.939 20.1146 495.932 30.1241 495.932 43H497.932ZM459.471 0.906247C448.568 0.906247 438.93 4.72515 432.02 11.9474C425.112 19.1684 421.011 29.706 421.011 43H423.011C423.011 30.1221 426.976 20.1129 433.466 13.33C439.954 6.54828 449.047 2.90625 459.471 2.90625V0.906247ZM421.011 43C421.011 56.2364 425.112 66.7732 432.02 74.0079C438.929 81.2441 448.566 85.0937 459.471 85.0937V83.0937C449.049 83.0937 439.956 79.4239 433.466 72.6268C426.975 65.8284 423.011 55.8183 423.011 43H421.011ZM459.471 85.0937C470.317 85.0937 479.954 81.2742 486.878 74.0534C493.801 66.8334 497.932 56.296 497.932 43H495.932C495.932 55.8759 491.939 65.8854 485.434 72.6692C478.93 79.4524 469.837 83.0937 459.471 83.0937V85.0937ZM478.784 43C478.784 51.332 476.805 57.6166 473.448 61.7977C470.112 65.9518 465.333 68.1328 459.471 68.1328V70.1328C465.876 70.1328 471.253 67.724 475.007 63.05C478.739 58.4029 480.784 51.6211 480.784 43H478.784ZM459.471 68.1328C453.59 68.1328 448.812 65.9513 445.481 61.7982C442.128 57.6176 440.159 51.3331 440.159 43H438.159C438.159 51.6201 440.194 58.402 443.921 63.0495C447.67 67.7245 453.048 70.1328 459.471 70.1328V68.1328ZM440.159 43C440.159 34.6669 442.128 28.3824 445.481 24.2018C448.812 20.0487 453.59 17.8672 459.471 17.8672V15.8672C453.048 15.8672 447.67 18.2755 443.921 22.9505C440.194 27.598 438.159 34.3799 438.159 43H440.159ZM459.471 17.8672C465.333 17.8672 470.112 20.0482 473.448 24.2023C476.805 28.3834 478.784 34.668 478.784 43H480.784C480.784 34.3789 478.739 27.5971 475.007 22.95C471.253 18.276 465.876 15.8672 459.471 15.8672V17.8672ZM511.662 83H510.662V84H511.662V83ZM528.576 83V84H529.576V83H528.576ZM528.576 54.6406V53.6406H527.576V54.6406H528.576ZM540.92 54.6406L541.802 54.1693L541.519 53.6406H540.92V54.6406ZM556.076 83L555.194 83.4713L555.476 84H556.076V83ZM574.748 83V84H576.434L575.625 82.5205L574.748 83ZM557.755 51.9062L557.361 50.9873L556.351 51.421L556.878 52.3858L557.755 51.9062ZM511.662 3V2H510.662V3H511.662ZM528.576 41.0469H527.576V42.0469H528.576V41.0469ZM528.576 16.8281V15.8281H527.576V16.8281H528.576ZM511.662 84H528.576V82H511.662V84ZM529.576 83V54.6406H527.576V83H529.576ZM528.576 55.6406H540.92V53.6406H528.576V55.6406ZM540.038 55.112L555.194 83.4713L556.958 82.5287L541.802 54.1693L540.038 55.112ZM556.076 84H574.748V82H556.076V84ZM575.625 82.5205L558.633 51.4267L556.878 52.3858L573.87 83.4795L575.625 82.5205ZM558.15 52.8252C567.654 48.7462 572.896 40.4306 572.896 29.1328H570.896C570.896 39.71 566.06 47.2538 557.361 50.9873L558.15 52.8252ZM572.896 29.1328C572.896 20.9557 570.187 14.1383 565.052 9.37157C559.925 4.61248 552.49 2 543.224 2V4C552.122 4 559.024 6.5047 563.691 10.8374C568.351 15.1624 570.896 21.4115 570.896 29.1328H572.896ZM543.224 2H511.662V4H543.224V2ZM510.662 3V83H512.662V3H510.662ZM529.576 41.0469V16.8281H527.576V41.0469H529.576ZM528.576 17.8281H539.982V15.8281H528.576V17.8281ZM539.982 17.8281C544.737 17.8281 548.085 18.8863 550.236 20.7482C552.36 22.5874 553.474 25.3505 553.474 29.1328H555.474C555.474 24.9464 554.225 21.5572 551.545 19.2362C548.89 16.9379 544.992 15.8281 539.982 15.8281V17.8281ZM553.474 29.1328C553.474 32.8924 552.362 35.5488 550.261 37.2942C548.124 39.0697 544.792 40.0469 540.06 40.0469V42.0469C545.015 42.0469 548.891 41.0319 551.539 38.8327C554.223 36.6035 555.474 33.3029 555.474 29.1328H553.474ZM540.06 40.0469H528.576V42.0469H540.06V40.0469ZM586.049 3V2H585.049V3H586.049ZM586.049 83H585.049V84H586.049V83ZM602.455 83V84H603.455V83H602.455ZM602.455 30.7344V29.7344H601.455V30.7344H602.455ZM603.12 30.7344L604.048 30.3637L603.797 29.7344H603.12V30.7344ZM623.823 82.6094L622.894 82.98L623.145 83.6094H623.823V82.6094ZM634.995 82.6094V83.6094H635.671L635.923 82.9812L634.995 82.6094ZM655.698 30.9297V29.9297H655.021L654.769 30.5578L655.698 30.9297ZM656.362 30.9297H657.362V29.9297H656.362V30.9297ZM656.362 83H655.362V84H656.362V83ZM672.768 83V84H673.768V83H672.768ZM672.768 3H673.768V2H672.768V3ZM651.909 3V2H651.238L650.983 2.62074L651.909 3ZM629.877 56.75V57.75H630.548L630.803 57.1293L629.877 56.75ZM628.94 56.75L628.015 57.1293L628.269 57.75H628.94V56.75ZM606.909 3L607.834 2.62074L607.579 2H606.909V3ZM585.049 3V83H587.049V3H585.049ZM586.049 84H602.455V82H586.049V84ZM603.455 83V30.7344H601.455V83H603.455ZM602.455 31.7344H603.12V29.7344H602.455V31.7344ZM602.191 31.105L622.894 82.98L624.751 82.2387L604.048 30.3637L602.191 31.105ZM623.823 83.6094H634.995V81.6094H623.823V83.6094ZM635.923 82.9812L656.626 31.3016L654.769 30.5578L634.066 82.2375L635.923 82.9812ZM655.698 31.9297H656.362V29.9297H655.698V31.9297ZM655.362 30.9297V83H657.362V30.9297H655.362ZM656.362 84H672.768V82H656.362V84ZM673.768 83V3H671.768V83H673.768ZM672.768 2H651.909V4H672.768V2ZM650.983 2.62074L628.952 56.3707L630.803 57.1293L652.834 3.37926L650.983 2.62074ZM629.877 55.75H628.94V57.75H629.877V55.75ZM629.865 56.3707L607.834 2.62074L605.983 3.37926L628.015 57.1293L629.865 56.3707ZM606.909 2H586.049V4H606.909V2ZM702.693 83V84H703.419L703.643 83.3095L702.693 83ZM708.63 64.7578V63.7578H707.904L707.679 64.4483L708.63 64.7578ZM737.497 64.7578L738.448 64.4483L738.223 63.7578H737.497V64.7578ZM743.435 83L742.484 83.3095L742.709 84H743.435V83ZM761.56 83V84H762.962L762.505 82.6741L761.56 83ZM733.982 3L734.927 2.67409L734.695 2H733.982V3ZM712.185 3V2H711.472L711.239 2.67368L712.185 3ZM684.568 83L683.622 82.6737L683.164 84H684.568V83ZM712.927 51.5547L711.976 51.2455L711.55 52.5547H712.927V51.5547ZM722.771 21.2812V20.2812H722.044L721.82 20.972L722.771 21.2812ZM723.396 21.2812L724.347 20.972L724.122 20.2812H723.396V21.2812ZM733.239 51.5547V52.5547H734.616L734.19 51.2455L733.239 51.5547ZM703.643 83.3095L709.581 65.0673L707.679 64.4483L701.742 82.6905L703.643 83.3095ZM708.63 65.7578H737.497V63.7578H708.63V65.7578ZM736.546 65.0673L742.484 83.3095L744.386 82.6905L738.448 64.4483L736.546 65.0673ZM743.435 84H761.56V82H743.435V84ZM762.505 82.6741L734.927 2.67409L733.036 3.3259L760.614 83.3259L762.505 82.6741ZM733.982 2H712.185V4H733.982V2ZM711.239 2.67368L683.622 82.6737L685.513 83.3263L713.13 3.32632L711.239 2.67368ZM684.568 84H702.693V82H684.568V84ZM713.878 51.8639L723.722 21.5905L721.82 20.972L711.976 51.2455L713.878 51.8639ZM722.771 22.2812H723.396V20.2812H722.771V22.2812ZM722.445 21.5905L732.288 51.8639L734.19 51.2455L724.347 20.972L722.445 21.5905ZM733.239 50.5547H712.927V52.5547H733.239V50.5547ZM760.459 16.9453H759.459V17.9453H760.459V16.9453ZM784.951 16.9453H785.951V15.9453H784.951V16.9453ZM784.951 83H783.951V84H784.951V83ZM801.67 83V84H802.67V83H801.67ZM801.67 16.9453V15.9453H800.67V16.9453H801.67ZM826.162 16.9453V17.9453H827.162V16.9453H826.162ZM826.162 3H827.162V2H826.162V3ZM760.459 3V2H759.459V3H760.459ZM760.459 17.9453H784.951V15.9453H760.459V17.9453ZM783.951 16.9453V83H785.951V16.9453H783.951ZM784.951 84H801.67V82H784.951V84ZM802.67 83V16.9453H800.67V83H802.67ZM801.67 17.9453H826.162V15.9453H801.67V17.9453ZM827.162 16.9453V3H825.162V16.9453H827.162ZM826.162 2H760.459V4H826.162V2ZM759.459 3V16.9453H761.459V3H759.459ZM856.096 3H857.096V2H856.096V3ZM839.182 3V2H838.182V3H839.182ZM839.182 83H838.182V84H839.182V83ZM856.096 83V84H857.096V83H856.096ZM856.096 2H839.182V4H856.096V2ZM838.182 3V83H840.182V3H838.182ZM839.182 84H856.096V82H839.182V84ZM857.096 83V3H855.096V83H857.096ZM946.728 43C946.728 29.704 942.597 19.1666 935.674 11.9466C928.75 4.72583 919.113 0.906247 908.267 0.906247V2.90625C918.632 2.90625 927.726 6.5476 934.23 13.3308C940.735 20.1146 944.728 30.1241 944.728 43H946.728ZM908.267 0.906247C897.364 0.906247 887.726 4.72515 880.816 11.9474C873.907 19.1684 869.806 29.706 869.806 43H871.806C871.806 30.1221 875.772 20.1129 882.261 13.33C888.75 6.54828 897.842 2.90625 908.267 2.90625V0.906247ZM869.806 43C869.806 56.2364 873.908 66.7732 880.815 74.0079C887.724 81.2441 897.362 85.0937 908.267 85.0937V83.0937C897.845 83.0937 888.752 79.4239 882.262 72.6268C875.771 65.8284 871.806 55.8183 871.806 43H869.806ZM908.267 85.0937C919.113 85.0937 928.75 81.2742 935.674 74.0534C942.597 66.8334 946.728 56.296 946.728 43H944.728C944.728 55.8759 940.735 65.8854 934.23 72.6692C927.726 79.4524 918.632 83.0937 908.267 83.0937V85.0937ZM927.58 43C927.58 51.332 925.601 57.6166 922.243 61.7977C918.907 65.9518 914.129 68.1328 908.267 68.1328V70.1328C914.672 70.1328 920.049 67.724 923.803 63.05C927.535 58.4029 929.58 51.6211 929.58 43H927.58ZM908.267 68.1328C902.386 68.1328 897.608 65.9513 894.277 61.7982C890.924 57.6176 888.955 51.3331 888.955 43H886.955C886.955 51.6201 888.989 58.402 892.717 63.0495C896.466 67.7245 901.844 70.1328 908.267 70.1328V68.1328ZM888.955 43C888.955 34.6669 890.924 28.3824 894.277 24.2018C897.608 20.0487 902.386 17.8672 908.267 17.8672V15.8672C901.844 15.8672 896.466 18.2755 892.717 22.9505C888.989 27.598 886.955 34.3799 886.955 43H888.955ZM908.267 17.8672C914.129 17.8672 918.907 20.0482 922.243 24.2023C925.601 28.3834 927.58 34.668 927.58 43H929.58C929.58 34.3789 927.535 27.5971 923.803 22.95C920.049 18.276 914.672 15.8672 908.267 15.8672V17.8672ZM1027.37 3H1028.37V2H1027.37V3ZM1010.54 3V2H1009.54V3H1010.54ZM1010.54 53.3125V54.3125H1011.54V53.3125H1010.54ZM1009.83 53.3125L1009.01 53.8784L1009.31 54.3125H1009.83V53.3125ZM975.301 3L976.126 2.43412L975.828 2H975.301V3ZM960.457 3V2H959.457V3H960.457ZM960.457 83H959.457V84H960.457V83ZM977.371 83V84H978.371V83H977.371ZM977.371 32.6484V31.6484H976.371V32.6484H977.371ZM977.957 32.6484L978.78 32.0798L978.482 31.6484H977.957V32.6484ZM1012.76 83L1011.94 83.5686L1012.24 84H1012.76V83ZM1027.37 83V84H1028.37V83H1027.37ZM1027.37 2H1010.54V4H1027.37V2ZM1009.54 3V53.3125H1011.54V3H1009.54ZM1010.54 52.3125H1009.83V54.3125H1010.54V52.3125ZM1010.66 52.7466L976.126 2.43412L974.477 3.56587L1009.01 53.8784L1010.66 52.7466ZM975.301 2H960.457V4H975.301V2ZM959.457 3V83H961.457V3H959.457ZM960.457 84H977.371V82H960.457V84ZM978.371 83V32.6484H976.371V83H978.371ZM977.371 33.6484H977.957V31.6484H977.371V33.6484ZM977.135 33.217L1011.94 83.5686L1013.58 82.4314L978.78 32.0798L977.135 33.217ZM1012.76 84H1027.37V82H1012.76V84ZM1028.37 83V3H1026.37V83H1028.37ZM1086.94 26.0078L1085.95 26.1067L1086.04 27.0078H1086.94V26.0078ZM1103.16 26.0078V27.0078H1104.17L1104.16 25.9914L1103.16 26.0078ZM1043.08 26.125L1044.08 26.1283L1044.08 26.1196L1043.08 26.125ZM1064.87 47.9219L1065.12 46.9519L1065.11 46.9495L1064.87 47.9219ZM1073.59 50.1094L1073.34 51.0793L1073.35 51.0813L1073.59 50.1094ZM1087.18 60.1094L1088.18 60.116L1088.18 60.1021L1087.18 60.1094ZM1057.34 57.8828L1058.33 57.8147L1058.27 56.8828H1057.34V57.8828ZM1040.97 57.8828V56.8828H1039.94L1039.97 57.9076L1040.97 57.8828ZM1104.25 60.1484L1105.25 60.1511L1105.25 60.1455L1104.25 60.1484ZM1080.26 36.6328L1080.03 37.6055L1080.05 37.6085L1080.26 36.6328ZM1073.08 34.9141L1073.31 33.9414L1073.3 33.9396L1073.08 34.9141ZM1060.42 24.9922L1061.42 25.0126L1061.42 25.0024V24.9922H1060.42ZM1086.94 27.0078H1103.16V25.0078H1086.94V27.0078ZM1104.16 25.9914C1104.03 18.5712 1100.91 12.2677 1095.5 7.83642C1090.1 3.41693 1082.47 0.906247 1073.39 0.906247V2.90625C1082.12 2.90625 1089.26 5.31744 1094.23 9.38427C1099.19 13.4393 1102.04 19.1866 1102.16 26.0242L1104.16 25.9914ZM1073.39 0.906247C1064.45 0.906247 1056.62 3.37602 1051.01 7.78001C1045.38 12.1982 1042.04 18.5388 1042.08 26.1304L1044.08 26.1196C1044.04 19.18 1047.08 13.4112 1052.24 9.3528C1057.43 5.28023 1064.8 2.90625 1073.39 2.90625V0.906247ZM1042.08 26.1217C1042.06 32.2867 1044.23 37.1921 1048.2 40.9571C1052.14 44.6928 1057.79 47.2512 1064.64 48.8943L1065.11 46.9495C1058.44 45.3504 1053.17 42.9087 1049.58 39.5058C1046.02 36.1322 1044.06 31.7601 1044.08 26.1283L1042.08 26.1217ZM1064.63 48.8918L1073.34 51.0793L1073.83 49.1395L1065.12 46.952L1064.63 48.8918ZM1073.35 51.0813C1077.69 52.1325 1080.93 53.2521 1083.07 54.7066C1085.15 56.1152 1086.16 57.8015 1086.18 60.1166L1088.18 60.1021C1088.16 57.0266 1086.73 54.7676 1084.2 53.0512C1081.73 51.3807 1078.19 50.1956 1073.82 49.1375L1073.35 51.0813ZM1086.18 60.1027C1086.16 62.6785 1084.95 64.8489 1082.72 66.4097C1080.47 67.9882 1077.15 68.9531 1073 68.9531V70.9531C1077.44 70.9531 1081.19 69.9259 1083.87 68.0474C1086.58 66.1511 1088.16 63.3997 1088.18 60.116L1086.18 60.1027ZM1073 68.9531C1068.75 68.9531 1065.2 67.9686 1062.67 66.1146C1060.17 64.2818 1058.59 61.5412 1058.33 57.8147L1056.34 57.9509C1056.63 62.2322 1058.49 65.5268 1061.48 67.7272C1064.46 69.9064 1068.46 70.9531 1073 70.9531V68.9531ZM1057.34 56.8828H1040.97V58.8828H1057.34V56.8828ZM1039.97 57.9076C1040.19 66.8152 1043.5 73.6739 1049.34 78.2821C1055.15 82.8663 1063.35 85.1328 1073.19 85.1328V83.1328C1063.63 83.1328 1055.92 80.9266 1050.58 76.712C1045.27 72.5214 1042.18 66.2551 1041.97 57.858L1039.97 57.9076ZM1073.19 85.1328C1083.11 85.1328 1091.1 82.7651 1096.65 78.421C1102.22 74.0553 1105.23 67.7623 1105.25 60.1511L1103.25 60.1458C1103.23 67.183 1100.48 72.8822 1095.41 76.8465C1090.33 80.8326 1082.81 83.1328 1073.19 83.1328V85.1328ZM1105.25 60.1455C1105.23 53.1993 1102.59 47.8336 1098.13 43.8237C1093.7 39.8429 1087.53 37.24 1080.48 35.6571L1080.05 37.6085C1086.91 39.1506 1092.71 41.6454 1096.79 45.3111C1100.83 48.9476 1103.23 53.7773 1103.25 60.1514L1105.25 60.1455ZM1080.5 35.6602L1073.31 33.9415L1072.84 35.8866L1080.03 37.6054L1080.5 35.6602ZM1073.3 33.9396C1069.85 33.1453 1066.81 32.1329 1064.66 30.6776C1062.55 29.2532 1061.37 27.4613 1061.42 25.0126L1059.42 24.9718C1059.35 28.2653 1061.02 30.6335 1063.54 32.3341C1066.01 34.0038 1069.35 35.0813 1072.85 35.8885L1073.3 33.9396ZM1061.42 24.9922C1061.42 22.7434 1062.4 20.8029 1064.33 19.3933C1066.29 17.9639 1069.27 17.0469 1073.27 17.0469V15.0469C1068.99 15.0469 1065.55 16.0244 1063.15 17.7786C1060.72 19.5526 1059.42 22.0848 1059.42 24.9922H1061.42ZM1073.27 17.0469C1077.18 17.0469 1080.21 17.934 1082.32 19.476C1084.4 21.0004 1085.66 23.2243 1085.95 26.1067L1087.94 25.9089C1087.6 22.5023 1086.07 19.7457 1083.5 17.8619C1080.95 15.9957 1077.46 15.0469 1073.27 15.0469V17.0469Z" fill="#EFEFEF"/>
</svg>
